<svg width="353" height="64" viewBox="0 0 353 64" fill="none" xmlns="http://www.w3.org/2000/svg">
<path d="M167.574 28.6749V12.9572H173.662C175.506 12.9572 176.945 13.4 177.979 14.2855C179.012 15.171 179.528 16.3959 179.528 17.9603C179.528 19.0082 179.292 19.9158 178.82 20.6832C178.347 21.4359 177.676 22.0115 176.805 22.41C175.934 22.8084 174.887 23.0077 173.662 23.0077H170.452V28.6749H167.574ZM170.452 20.5061H173.529C174.503 20.5061 175.248 20.2921 175.765 19.8641C176.296 19.4362 176.562 18.8015 176.562 17.9603C176.562 17.1339 176.296 16.514 175.765 16.1008C175.248 15.6728 174.503 15.4588 173.529 15.4588H170.452V20.5061Z" fill="#00FFC2"/>
<path d="M183.814 28.9405C182.574 28.9405 181.578 28.6601 180.825 28.0993C180.073 27.5237 179.696 26.7268 179.696 25.7084C179.696 24.6901 180.014 23.8932 180.648 23.3176C181.283 22.742 182.25 22.3288 183.548 22.0779L187.467 21.3031C187.467 20.4619 187.275 19.8346 186.891 19.4214C186.507 18.9934 185.939 18.7794 185.187 18.7794C184.508 18.7794 183.969 18.9417 183.57 19.2664C183.187 19.5764 182.921 20.0265 182.774 20.6168L179.896 20.484C180.132 19.2295 180.707 18.2702 181.622 17.6061C182.537 16.9272 183.725 16.5878 185.187 16.5878C186.869 16.5878 188.138 17.0158 188.994 17.8718C189.865 18.713 190.3 19.9232 190.3 21.5023V25.797C190.3 26.1069 190.352 26.3209 190.455 26.439C190.573 26.557 190.743 26.6161 190.964 26.6161H191.341V28.6749C191.252 28.7044 191.105 28.7265 190.898 28.7413C190.706 28.756 190.507 28.7634 190.3 28.7634C189.813 28.7634 189.378 28.6896 188.994 28.542C188.61 28.3797 188.315 28.1067 188.109 27.723C187.902 27.3245 187.799 26.7858 187.799 26.1069L188.042 26.284C187.924 26.8006 187.666 27.2654 187.267 27.6787C186.884 28.0772 186.397 28.3871 185.806 28.6085C185.216 28.8298 184.552 28.9405 183.814 28.9405ZM184.39 26.8817C185.024 26.8817 185.57 26.7563 186.028 26.5054C186.485 26.2545 186.839 25.9077 187.09 25.4649C187.341 25.0222 187.467 24.4983 187.467 23.8932V23.229L184.412 23.8489C183.777 23.9817 183.32 24.181 183.039 24.4466C182.774 24.6975 182.641 25.0296 182.641 25.4428C182.641 25.9003 182.788 26.2545 183.083 26.5054C183.393 26.7563 183.829 26.8817 184.39 26.8817Z" fill="#00FFC2"/>
<path d="M192.008 28.6749V16.8534H194.664L194.775 20.1298L194.531 20.0855C194.708 18.9491 195.04 18.13 195.527 17.6283C196.029 17.1117 196.708 16.8534 197.564 16.8534H198.649V19.2886H197.542C196.937 19.2886 196.435 19.3771 196.037 19.5542C195.638 19.7313 195.336 20.0117 195.129 20.3954C194.937 20.7644 194.841 21.2514 194.841 21.8565V28.6749H192.008Z" fill="#00FFC2"/>
<path d="M202.524 28.9405C201.284 28.9405 200.288 28.6601 199.535 28.0993C198.783 27.5237 198.406 26.7268 198.406 25.7084C198.406 24.6901 198.724 23.8932 199.358 23.3176C199.993 22.742 200.96 22.3288 202.258 22.0779L206.177 21.3031C206.177 20.4619 205.985 19.8346 205.601 19.4214C205.217 18.9934 204.649 18.7794 203.897 18.7794C203.218 18.7794 202.679 18.9417 202.28 19.2664C201.897 19.5764 201.631 20.0265 201.484 20.6168L198.606 20.484C198.842 19.2295 199.417 18.2702 200.332 17.6061C201.247 16.9272 202.435 16.5878 203.897 16.5878C205.579 16.5878 206.848 17.0158 207.704 17.8718C208.575 18.713 209.01 19.9232 209.01 21.5023V25.797C209.01 26.1069 209.062 26.3209 209.165 26.439C209.283 26.557 209.453 26.6161 209.674 26.6161H210.051V28.6749C209.962 28.7044 209.815 28.7265 209.608 28.7413C209.416 28.756 209.217 28.7634 209.01 28.7634C208.523 28.7634 208.088 28.6896 207.704 28.542C207.32 28.3797 207.025 28.1067 206.819 27.723C206.612 27.3245 206.509 26.7858 206.509 26.1069L206.752 26.284C206.634 26.8006 206.376 27.2654 205.977 27.6787C205.594 28.0772 205.107 28.3871 204.516 28.6085C203.926 28.8298 203.262 28.9405 202.524 28.9405ZM203.1 26.8817C203.734 26.8817 204.28 26.7563 204.738 26.5054C205.195 26.2545 205.549 25.9077 205.8 25.4649C206.051 25.0222 206.177 24.4983 206.177 23.8932V23.229L203.122 23.8489C202.487 23.9817 202.03 24.181 201.749 24.4466C201.484 24.6975 201.351 25.0296 201.351 25.4428C201.351 25.9003 201.498 26.2545 201.793 26.5054C202.103 26.7563 202.539 26.8817 203.1 26.8817Z" fill="#00FFC2"/>
<path d="M218.251 28.9405C217.011 28.9405 216.015 28.6601 215.262 28.0993C214.509 27.5237 214.133 26.7268 214.133 25.7084C214.133 24.6901 214.45 23.8932 215.085 23.3176C215.72 22.742 216.686 22.3288 217.985 22.0779L221.903 21.3031C221.903 20.4619 221.711 19.8346 221.328 19.4214C220.944 18.9934 220.376 18.7794 219.623 18.7794C218.944 18.7794 218.406 18.9417 218.007 19.2664C217.623 19.5764 217.358 20.0265 217.21 20.6168L214.332 20.484C214.568 19.2295 215.144 18.2702 216.059 17.6061C216.974 16.9272 218.162 16.5878 219.623 16.5878C221.306 16.5878 222.575 17.0158 223.431 17.8718C224.302 18.713 224.737 19.9232 224.737 21.5023V25.797C224.737 26.1069 224.789 26.3209 224.892 26.439C225.01 26.557 225.18 26.6161 225.401 26.6161H225.777V28.6749C225.689 28.7044 225.541 28.7265 225.335 28.7413C225.143 28.756 224.944 28.7634 224.737 28.7634C224.25 28.7634 223.814 28.6896 223.431 28.542C223.047 28.3797 222.752 28.1067 222.545 27.723C222.339 27.3245 222.235 26.7858 222.235 26.1069L222.479 26.284C222.361 26.8006 222.103 27.2654 221.704 27.6787C221.32 28.0772 220.833 28.3871 220.243 28.6085C219.653 28.8298 218.989 28.9405 218.251 28.9405ZM218.826 26.8817C219.461 26.8817 220.007 26.7563 220.464 26.5054C220.922 26.2545 221.276 25.9077 221.527 25.4649C221.778 25.0222 221.903 24.4983 221.903 23.8932V23.229L218.848 23.8489C218.214 23.9817 217.756 24.181 217.476 24.4466C217.21 24.6975 217.077 25.0296 217.077 25.4428C217.077 25.9003 217.225 26.2545 217.52 26.5054C217.83 26.7563 218.265 26.8817 218.826 26.8817Z" fill="#00FFC2"/>
<path d="M231.362 32.2611C230.329 32.2611 229.443 32.1209 228.705 31.8405C227.967 31.5601 227.37 31.1616 226.912 30.6451C226.469 30.1433 226.16 29.5604 225.982 28.8962L228.905 28.697C229.052 29.1398 229.303 29.4866 229.657 29.7375C230.026 29.9884 230.594 30.1138 231.362 30.1138C232.233 30.1138 232.904 29.9146 233.376 29.5161C233.849 29.1324 234.085 28.5273 234.085 27.7008V26.1955C233.804 26.771 233.354 27.2359 232.734 27.5901C232.115 27.9296 231.421 28.0993 230.653 28.0993C229.679 28.0993 228.809 27.8632 228.041 27.3909C227.289 26.9039 226.698 26.2324 226.27 25.3764C225.842 24.5056 225.628 23.5021 225.628 22.3657C225.628 21.2293 225.835 20.2331 226.248 19.3771C226.676 18.5064 227.266 17.8275 228.019 17.3405C228.772 16.8387 229.635 16.5878 230.609 16.5878C231.465 16.5878 232.203 16.7797 232.823 17.1634C233.443 17.5471 233.893 18.0562 234.173 18.6909V16.8534H236.941V27.6344C236.941 28.638 236.704 29.4866 236.232 30.1802C235.775 30.8739 235.125 31.3904 234.284 31.7298C233.458 32.084 232.484 32.2611 231.362 32.2611ZM231.318 25.8855C232.159 25.8855 232.83 25.5756 233.332 24.9558C233.834 24.3212 234.092 23.4504 234.107 22.3435C234.122 21.6056 234.011 20.9784 233.775 20.4619C233.553 19.9306 233.229 19.5247 232.801 19.2443C232.388 18.9491 231.893 18.8015 231.318 18.8015C230.447 18.8015 229.768 19.1262 229.281 19.7756C228.809 20.4102 228.573 21.2662 228.573 22.3435C228.573 23.4209 228.816 24.2843 229.303 24.9336C229.805 25.5682 230.476 25.8855 231.318 25.8855Z" fill="#00FFC2"/>
<path d="M243.767 28.9405C242.586 28.9405 241.56 28.6896 240.69 28.1878C239.819 27.6713 239.147 26.9481 238.675 26.0184C238.203 25.0886 237.967 24.0039 237.967 22.7642C237.967 21.5245 238.203 20.4471 238.675 19.5321C239.147 18.6023 239.811 17.8791 240.667 17.3626C241.538 16.8461 242.549 16.5878 243.7 16.5878C244.822 16.5878 245.803 16.8387 246.645 17.3405C247.501 17.8423 248.157 18.5654 248.615 19.5099C249.072 20.4545 249.301 21.5909 249.301 22.9191V23.5611H240.911C240.97 24.5942 241.25 25.3764 241.752 25.9077C242.269 26.4242 242.948 26.6825 243.789 26.6825C244.423 26.6825 244.947 26.5423 245.361 26.2619C245.789 25.9667 246.084 25.5609 246.246 25.0443L249.146 25.2214C248.821 26.3726 248.179 27.2802 247.22 27.9443C246.276 28.6085 245.124 28.9405 243.767 28.9405ZM240.911 21.6573H246.379C246.32 20.698 246.047 19.9896 245.56 19.5321C245.073 19.0598 244.453 18.8237 243.7 18.8237C242.948 18.8237 242.32 19.0672 241.819 19.5542C241.332 20.0412 241.029 20.7423 240.911 21.6573ZM240.291 15.5695L242.372 12.3374H245.206L247.287 15.5695H245.228L243.523 13.2229H244.054L242.35 15.5695H240.291Z" fill="#00FFC2"/>
<path d="M250.343 28.6749V16.8534H252.911L253.021 20.1741L252.689 20.0412C252.807 19.2148 253.051 18.5507 253.42 18.0489C253.789 17.5471 254.239 17.1781 254.77 16.942C255.302 16.7059 255.884 16.5878 256.519 16.5878C257.39 16.5878 258.12 16.7797 258.711 17.1634C259.316 17.5471 259.773 18.0784 260.083 18.7573C260.393 19.4214 260.548 20.1962 260.548 21.0817V28.6749H257.715V21.9893C257.715 21.3252 257.648 20.7644 257.515 20.3069C257.382 19.8494 257.161 19.5026 256.851 19.2664C256.556 19.0155 256.157 18.8901 255.656 18.8901C254.903 18.8901 254.298 19.1557 253.84 19.687C253.398 20.2183 253.176 20.9858 253.176 21.9893V28.6749H250.343Z" fill="#00FFC2"/>
<path d="M267.32 28.9405C266.139 28.9405 265.113 28.6896 264.243 28.1878C263.372 27.6713 262.693 26.9481 262.206 26.0184C261.734 25.0886 261.498 24.0039 261.498 22.7642C261.498 21.5245 261.734 20.4471 262.206 19.5321C262.693 18.6023 263.372 17.8791 264.243 17.3626C265.113 16.8461 266.139 16.5878 267.32 16.5878C268.323 16.5878 269.216 16.7649 269.998 17.1191C270.781 17.4733 271.415 17.9825 271.902 18.6466C272.404 19.2959 272.714 20.0929 272.832 21.0374L269.91 21.1924C269.792 20.4397 269.497 19.8715 269.024 19.4878C268.567 19.0893 267.999 18.8901 267.32 18.8901C266.405 18.8901 265.696 19.2369 265.195 19.9306C264.693 20.6094 264.442 21.554 264.442 22.7642C264.442 23.9891 264.693 24.941 265.195 25.6199C265.696 26.2988 266.405 26.6382 267.32 26.6382C268.013 26.6382 268.589 26.439 269.046 26.0405C269.519 25.642 269.807 25.0222 269.91 24.181L272.832 24.3138C272.714 25.2583 272.411 26.0774 271.924 26.771C271.437 27.4647 270.803 28.0034 270.021 28.3871C269.238 28.756 268.338 28.9405 267.32 28.9405Z" fill="#00FFC2"/>
<path d="M273.636 28.6749V16.8534H276.469V28.6749H273.636ZM273.592 15.2817V12.758H276.536V15.2817H273.592Z" fill="#00FFC2"/>
<path d="M281.623 28.9405C280.383 28.9405 279.387 28.6601 278.634 28.0993C277.882 27.5237 277.505 26.7268 277.505 25.7084C277.505 24.6901 277.823 23.8932 278.457 23.3176C279.092 22.742 280.058 22.3288 281.357 22.0779L285.276 21.3031C285.276 20.4619 285.084 19.8346 284.7 19.4214C284.316 18.9934 283.748 18.7794 282.995 18.7794C282.316 18.7794 281.778 18.9417 281.379 19.2664C280.996 19.5764 280.73 20.0265 280.582 20.6168L277.704 20.484C277.941 19.2295 278.516 18.2702 279.431 17.6061C280.346 16.9272 281.534 16.5878 282.995 16.5878C284.678 16.5878 285.947 17.0158 286.803 17.8718C287.674 18.713 288.109 19.9232 288.109 21.5023V25.797C288.109 26.1069 288.161 26.3209 288.264 26.439C288.382 26.557 288.552 26.6161 288.773 26.6161H289.15V28.6749C289.061 28.7044 288.913 28.7265 288.707 28.7413C288.515 28.756 288.316 28.7634 288.109 28.7634C287.622 28.7634 287.187 28.6896 286.803 28.542C286.419 28.3797 286.124 28.1067 285.918 27.723C285.711 27.3245 285.608 26.7858 285.608 26.1069L285.851 26.284C285.733 26.8006 285.475 27.2654 285.076 27.6787C284.693 28.0772 284.206 28.3871 283.615 28.6085C283.025 28.8298 282.361 28.9405 281.623 28.9405ZM282.198 26.8817C282.833 26.8817 283.379 26.7563 283.837 26.5054C284.294 26.2545 284.648 25.9077 284.899 25.4649C285.15 25.0222 285.276 24.4983 285.276 23.8932V23.229L282.221 23.8489C281.586 23.9817 281.128 24.181 280.848 24.4466C280.582 24.6975 280.45 25.0296 280.45 25.4428C280.45 25.9003 280.597 26.2545 280.892 26.5054C281.202 26.7563 281.638 26.8817 282.198 26.8817Z" fill="#00FFC2"/>
<path d="M294.491 28.9405C293.325 28.9405 292.343 28.7708 291.546 28.4314C290.764 28.0919 290.159 27.6196 289.731 27.0146C289.303 26.4095 289.06 25.7232 289 24.9558L291.901 24.8229C292.004 25.4428 292.262 25.9224 292.675 26.2619C293.089 26.6013 293.701 26.771 294.513 26.771C295.177 26.771 295.693 26.6677 296.062 26.4611C296.446 26.2397 296.638 25.9003 296.638 25.4428C296.638 25.1771 296.572 24.9558 296.439 24.7787C296.306 24.6016 296.055 24.4466 295.686 24.3138C295.317 24.181 294.771 24.0481 294.048 23.9153C292.838 23.7087 291.886 23.4578 291.192 23.1626C290.498 22.8527 290.004 22.469 289.709 22.0115C289.428 21.554 289.288 20.9858 289.288 20.3069C289.288 19.2 289.709 18.3071 290.55 17.6283C291.406 16.9346 292.653 16.5878 294.291 16.5878C295.354 16.5878 296.247 16.7649 296.97 17.1191C297.693 17.4585 298.254 17.9308 298.652 18.5359C299.066 19.1262 299.324 19.8051 299.427 20.5725L296.572 20.7054C296.498 20.3069 296.365 19.9601 296.173 19.6649C295.981 19.3697 295.723 19.1484 295.398 19.0008C295.074 18.8384 294.69 18.7573 294.247 18.7573C293.583 18.7573 293.081 18.8901 292.742 19.1557C292.402 19.4214 292.233 19.7756 292.233 20.2183C292.233 20.5283 292.306 20.7865 292.454 20.9932C292.616 21.1998 292.875 21.3695 293.229 21.5023C293.583 21.6204 294.055 21.7311 294.646 21.8344C295.885 22.0262 296.859 22.2771 297.568 22.5871C298.291 22.8822 298.8 23.2659 299.095 23.7382C299.405 24.1957 299.56 24.7492 299.56 25.3985C299.56 26.1512 299.346 26.7932 298.918 27.3245C298.505 27.8558 297.915 28.2616 297.147 28.542C296.394 28.8077 295.509 28.9405 294.491 28.9405Z" fill="#00FFC2"/>
<path d="M309.987 28.9405C308.806 28.9405 307.78 28.6896 306.91 28.1878C306.039 27.6713 305.367 26.9481 304.895 26.0184C304.423 25.0886 304.187 24.0039 304.187 22.7642C304.187 21.5245 304.423 20.4471 304.895 19.5321C305.367 18.6023 306.031 17.8791 306.887 17.3626C307.758 16.8461 308.769 16.5878 309.92 16.5878C311.042 16.5878 312.023 16.8387 312.865 17.3405C313.721 17.8423 314.377 18.5654 314.835 19.5099C315.292 20.4545 315.521 21.5909 315.521 22.9191V23.5611H307.131C307.19 24.5942 307.47 25.3764 307.972 25.9077C308.489 26.4242 309.168 26.6825 310.009 26.6825C310.643 26.6825 311.167 26.5423 311.581 26.2619C312.009 25.9667 312.304 25.5609 312.466 25.0443L315.366 25.2214C315.041 26.3726 314.399 27.2802 313.44 27.9443C312.496 28.6085 311.344 28.9405 309.987 28.9405ZM307.131 21.6573H312.599C312.54 20.698 312.267 19.9896 311.78 19.5321C311.293 19.0598 310.673 18.8237 309.92 18.8237C309.168 18.8237 308.54 19.0672 308.039 19.5542C307.552 20.0412 307.249 20.7423 307.131 21.6573Z" fill="#00FFC2"/>
<path d="M172.4 55.2611C171.367 55.2611 170.481 55.1209 169.743 54.8405C169.005 54.5601 168.408 54.1616 167.95 53.6451C167.507 53.1433 167.198 52.5604 167.02 51.8962L169.943 51.697C170.09 52.1398 170.341 52.4866 170.695 52.7375C171.064 52.9884 171.632 53.1138 172.4 53.1138C173.271 53.1138 173.942 52.9146 174.414 52.5161C174.887 52.1324 175.123 51.5273 175.123 50.7008V49.1955C174.842 49.771 174.392 50.2359 173.772 50.5901C173.153 50.9296 172.459 51.0993 171.691 51.0993C170.717 51.0993 169.847 50.8632 169.079 50.3909C168.327 49.9039 167.736 49.2324 167.308 48.3764C166.88 47.5056 166.666 46.5021 166.666 45.3657C166.666 44.2293 166.873 43.2331 167.286 42.3771C167.714 41.5064 168.304 40.8275 169.057 40.3405C169.81 39.8387 170.673 39.5878 171.647 39.5878C172.503 39.5878 173.241 39.7797 173.861 40.1634C174.481 40.5471 174.931 41.0562 175.211 41.6909V39.8534H177.979V50.6344C177.979 51.638 177.742 52.4866 177.27 53.1802C176.813 53.8739 176.163 54.3904 175.322 54.7298C174.496 55.084 173.521 55.2611 172.4 55.2611ZM172.356 48.8855C173.197 48.8855 173.868 48.5756 174.37 47.9558C174.872 47.3212 175.13 46.4504 175.145 45.3435C175.16 44.6056 175.049 43.9784 174.813 43.4619C174.591 42.9306 174.267 42.5247 173.839 42.2443C173.426 41.9491 172.931 41.8015 172.356 41.8015C171.485 41.8015 170.806 42.1262 170.319 42.7756C169.847 43.4102 169.611 44.2662 169.611 45.3435C169.611 46.4209 169.854 47.2843 170.341 47.9336C170.843 48.5682 171.514 48.8855 172.356 48.8855Z" fill="#00FFC2"/>
<path d="M184.805 51.9405C183.624 51.9405 182.598 51.6896 181.728 51.1878C180.857 50.6713 180.185 49.9481 179.713 49.0184C179.241 48.0886 179.005 47.0039 179.005 45.7642C179.005 44.5245 179.241 43.4471 179.713 42.5321C180.185 41.6023 180.849 40.8791 181.705 40.3626C182.576 39.8461 183.587 39.5878 184.738 39.5878C185.86 39.5878 186.841 39.8387 187.683 40.3405C188.539 40.8422 189.195 41.5654 189.653 42.5099C190.11 43.4545 190.339 44.5909 190.339 45.9191V46.5611H181.949C182.008 47.5942 182.288 48.3764 182.79 48.9077C183.307 49.4242 183.986 49.6825 184.827 49.6825C185.461 49.6825 185.985 49.5423 186.399 49.2619C186.827 48.9667 187.122 48.5609 187.284 48.0443L190.184 48.2214C189.859 49.3726 189.217 50.2802 188.258 50.9443C187.314 51.6085 186.162 51.9405 184.805 51.9405ZM181.949 44.6573H187.417C187.358 43.698 187.085 42.9896 186.598 42.5321C186.111 42.0598 185.491 41.8237 184.738 41.8237C183.986 41.8237 183.358 42.0672 182.857 42.5542C182.37 43.0412 182.067 43.7423 181.949 44.6573Z" fill="#00FFC2"/>
<path d="M196.185 51.9405C195.019 51.9405 194.037 51.7708 193.24 51.4314C192.458 51.0919 191.853 50.6196 191.425 50.0146C190.997 49.4095 190.753 48.7232 190.694 47.9558L193.594 47.8229C193.698 48.4428 193.956 48.9224 194.369 49.2619C194.782 49.6013 195.395 49.771 196.207 49.771C196.871 49.771 197.387 49.6677 197.756 49.4611C198.14 49.2397 198.332 48.9003 198.332 48.4428C198.332 48.1771 198.265 47.9558 198.133 47.7787C198 47.6016 197.749 47.4466 197.38 47.3138C197.011 47.181 196.465 47.0481 195.742 46.9153C194.532 46.7087 193.58 46.4578 192.886 46.1626C192.192 45.8527 191.698 45.469 191.403 45.0115C191.122 44.554 190.982 43.9858 190.982 43.3069C190.982 42.2 191.403 41.3071 192.244 40.6283C193.1 39.9346 194.347 39.5878 195.985 39.5878C197.048 39.5878 197.941 39.7649 198.664 40.1191C199.387 40.4585 199.948 40.9308 200.346 41.5359C200.76 42.1262 201.018 42.8051 201.121 43.5725L198.265 43.7054C198.192 43.3069 198.059 42.9601 197.867 42.6649C197.675 42.3697 197.417 42.1484 197.092 42.0008C196.767 41.8384 196.384 41.7573 195.941 41.7573C195.277 41.7573 194.775 41.8901 194.436 42.1557C194.096 42.4214 193.926 42.7756 193.926 43.2183C193.926 43.5283 194 43.7865 194.148 43.9932C194.31 44.1998 194.568 44.3695 194.923 44.5023C195.277 44.6204 195.749 44.7311 196.339 44.8344C197.579 45.0262 198.553 45.2771 199.262 45.5871C199.985 45.8822 200.494 46.2659 200.789 46.7382C201.099 47.1957 201.254 47.7492 201.254 48.3985C201.254 49.1512 201.04 49.7932 200.612 50.3245C200.199 50.8558 199.608 51.2616 198.841 51.542C198.088 51.8077 197.203 51.9405 196.185 51.9405Z" fill="#00FFC2"/>
<path d="M206.619 51.6749C205.438 51.6749 204.568 51.4018 204.007 50.8558C203.461 50.3097 203.188 49.4537 203.188 48.2878V37.0863H206.021V48.0222C206.021 48.5682 206.139 48.952 206.375 49.1733C206.612 49.3799 206.98 49.4833 207.482 49.4833H209.143V51.6749H206.619ZM201.328 42.0451V39.8534H209.143V42.0451H201.328Z" fill="#00FFC2"/>
<path d="M214.989 51.9405C213.823 51.9405 212.797 51.6896 211.912 51.1878C211.041 50.6713 210.362 49.9481 209.875 49.0184C209.403 48.0886 209.167 47.0039 209.167 45.7642C209.167 44.5097 209.403 43.425 209.875 42.5099C210.362 41.5802 211.041 40.8644 211.912 40.3626C212.797 39.8461 213.823 39.5878 214.989 39.5878C216.155 39.5878 217.173 39.8461 218.044 40.3626C218.914 40.8644 219.586 41.5802 220.058 42.5099C220.545 43.425 220.789 44.5097 220.789 45.7642C220.789 47.0039 220.545 48.0886 220.058 49.0184C219.586 49.9481 218.914 50.6713 218.044 51.1878C217.173 51.6896 216.155 51.9405 214.989 51.9405ZM214.989 49.6382C215.904 49.6382 216.605 49.2988 217.092 48.6199C217.594 47.941 217.845 46.9891 217.845 45.7642C217.845 44.554 217.594 43.6094 217.092 42.9306C216.605 42.2369 215.904 41.8901 214.989 41.8901C214.074 41.8901 213.365 42.2369 212.864 42.9306C212.362 43.6094 212.111 44.554 212.111 45.7642C212.111 46.9891 212.362 47.941 212.864 48.6199C213.365 49.2988 214.074 49.6382 214.989 49.6382Z" fill="#00FFC2"/>
<path d="M221.802 51.6749V39.8534H224.459L224.569 43.1298L224.326 43.0855C224.503 41.9491 224.835 41.13 225.322 40.6283C225.824 40.1117 226.503 39.8534 227.359 39.8534H228.443V42.2886H227.336C226.731 42.2886 226.23 42.3771 225.831 42.5542C225.433 42.7313 225.13 43.0117 224.924 43.3954C224.732 43.7644 224.636 44.2514 224.636 44.8565V51.6749H221.802Z" fill="#00FFC2"/>
<path d="M233.914 51.9405C232.734 51.9405 231.708 51.6896 230.837 51.1878C229.967 50.6713 229.295 49.9481 228.823 49.0184C228.351 48.0886 228.114 47.0039 228.114 45.7642C228.114 44.5245 228.351 43.4471 228.823 42.5321C229.295 41.6023 229.959 40.8791 230.815 40.3626C231.686 39.8461 232.697 39.5878 233.848 39.5878C234.97 39.5878 235.951 39.8387 236.792 40.3405C237.648 40.8422 238.305 41.5654 238.763 42.5099C239.22 43.4545 239.449 44.5909 239.449 45.9191V46.5611H231.059C231.118 47.5942 231.398 48.3764 231.9 48.9077C232.416 49.4242 233.095 49.6825 233.937 49.6825C234.571 49.6825 235.095 49.5423 235.508 49.2619C235.936 48.9667 236.232 48.5609 236.394 48.0443L239.294 48.2214C238.969 49.3726 238.327 50.2802 237.368 50.9443C236.423 51.6085 235.272 51.9405 233.914 51.9405ZM231.059 44.6573H236.527C236.468 43.698 236.195 42.9896 235.708 42.5321C235.221 42.0598 234.601 41.8237 233.848 41.8237C233.095 41.8237 232.468 42.0672 231.966 42.5542C231.479 43.0412 231.177 43.7423 231.059 44.6573Z" fill="#00FFC2"/>
<path d="M245.294 51.9405C244.128 51.9405 243.147 51.7708 242.35 51.4314C241.568 51.0919 240.963 50.6196 240.535 50.0146C240.107 49.4095 239.863 48.7232 239.804 47.9558L242.704 47.8229C242.808 48.4428 243.066 48.9224 243.479 49.2619C243.892 49.6013 244.505 49.771 245.316 49.771C245.981 49.771 246.497 49.6677 246.866 49.4611C247.25 49.2397 247.442 48.9003 247.442 48.4428C247.442 48.1771 247.375 47.9558 247.242 47.7787C247.11 47.6016 246.859 47.4466 246.49 47.3138C246.121 47.181 245.575 47.0481 244.852 46.9153C243.641 46.7087 242.689 46.4578 241.996 46.1626C241.302 45.8527 240.808 45.469 240.513 45.0115C240.232 44.554 240.092 43.9858 240.092 43.3069C240.092 42.2 240.513 41.3071 241.354 40.6283C242.21 39.9346 243.457 39.5878 245.095 39.5878C246.158 39.5878 247.051 39.7649 247.774 40.1191C248.497 40.4585 249.058 40.9308 249.456 41.5359C249.869 42.1262 250.128 42.8051 250.231 43.5725L247.375 43.7054C247.301 43.3069 247.169 42.9601 246.977 42.6649C246.785 42.3697 246.527 42.1484 246.202 42.0008C245.877 41.8384 245.494 41.7573 245.051 41.7573C244.387 41.7573 243.885 41.8901 243.545 42.1557C243.206 42.4214 243.036 42.7756 243.036 43.2183C243.036 43.5283 243.11 43.7865 243.258 43.9932C243.42 44.1998 243.678 44.3695 244.032 44.5023C244.387 44.6204 244.859 44.7311 245.449 44.8344C246.689 45.0262 247.663 45.2771 248.371 45.5871C249.095 45.8822 249.604 46.2659 249.899 46.7382C250.209 47.1957 250.364 47.7492 250.364 48.3985C250.364 49.1512 250.15 49.7932 249.722 50.3245C249.309 50.8558 248.718 51.2616 247.951 51.542C247.198 51.8077 246.313 51.9405 245.294 51.9405Z" fill="#00FFC2"/>
<path d="M259.883 51.9405C258.879 51.9405 258.008 51.6896 257.271 51.1878C256.547 50.6861 255.987 49.9703 255.588 49.0405C255.19 48.1107 254.99 47.0186 254.99 45.7642C254.99 44.5097 255.19 43.4176 255.588 42.4878C255.987 41.558 256.555 40.8422 257.293 40.3405C258.031 39.8387 258.894 39.5878 259.883 39.5878C260.709 39.5878 261.432 39.7575 262.052 40.097C262.687 40.4364 263.166 40.916 263.491 41.5359V35.9572H266.325V51.6749H263.624L263.558 49.926C263.233 50.5606 262.746 51.055 262.097 51.4092C261.447 51.7634 260.709 51.9405 259.883 51.9405ZM260.746 49.6382C261.336 49.6382 261.831 49.4906 262.229 49.1955C262.643 48.9003 262.953 48.4649 263.159 47.8894C263.38 47.299 263.491 46.5906 263.491 45.7642C263.491 44.9229 263.38 44.2145 263.159 43.639C262.953 43.0634 262.643 42.628 262.229 42.3328C261.831 42.0377 261.336 41.8901 260.746 41.8901C259.89 41.8901 259.204 42.2369 258.687 42.9306C258.186 43.6094 257.935 44.554 257.935 45.7642C257.935 46.9448 258.186 47.8894 258.687 48.5978C259.204 49.2914 259.89 49.6382 260.746 49.6382Z" fill="#00FFC2"/>
<path d="M273.15 51.9405C271.97 51.9405 270.944 51.6896 270.073 51.1878C269.203 50.6713 268.531 49.9481 268.059 49.0184C267.587 48.0886 267.35 47.0039 267.35 45.7642C267.35 44.5245 267.587 43.4471 268.059 42.5321C268.531 41.6023 269.195 40.8791 270.051 40.3626C270.922 39.8461 271.933 39.5878 273.084 39.5878C274.206 39.5878 275.187 39.8387 276.028 40.3405C276.884 40.8422 277.541 41.5654 277.999 42.5099C278.456 43.4545 278.685 44.5909 278.685 45.9191V46.5611H270.295C270.354 47.5942 270.634 48.3764 271.136 48.9077C271.652 49.4242 272.331 49.6825 273.173 49.6825C273.807 49.6825 274.331 49.5423 274.744 49.2619C275.172 48.9667 275.467 48.5609 275.63 48.0443L278.53 48.2214C278.205 49.3726 277.563 50.2802 276.604 50.9443C275.659 51.6085 274.508 51.9405 273.15 51.9405ZM270.295 44.6573H275.763C275.704 43.698 275.431 42.9896 274.944 42.5321C274.457 42.0598 273.837 41.8237 273.084 41.8237C272.331 41.8237 271.704 42.0672 271.202 42.5542C270.715 43.0412 270.413 43.7423 270.295 44.6573Z" fill="#00FFC2"/>
<path d="M288.738 51.6749C287.558 51.6749 286.687 51.4018 286.126 50.8558C285.58 50.3097 285.307 49.4537 285.307 48.2878V37.0863H288.141V48.0222C288.141 48.5682 288.259 48.952 288.495 49.1733C288.731 49.3799 289.1 49.4833 289.602 49.4833H291.262V51.6749H288.738ZM283.448 42.0451V39.8534H291.262V42.0451H283.448Z" fill="#00FFC2"/>
<path d="M292.383 51.6749V39.8534H295.04L295.15 43.1298L294.907 43.0855C295.084 41.9491 295.416 41.13 295.903 40.6283C296.405 40.1117 297.084 39.8534 297.94 39.8534H299.024V42.2886H297.918C297.313 42.2886 296.811 42.3771 296.412 42.5542C296.014 42.7313 295.711 43.0117 295.505 43.3954C295.313 43.7644 295.217 44.2514 295.217 44.8565V51.6749H292.383Z" fill="#00FFC2"/>
<path d="M302.9 51.9405C301.66 51.9405 300.664 51.6601 299.911 51.0993C299.158 50.5237 298.782 49.7268 298.782 48.7084C298.782 47.6901 299.099 46.8932 299.734 46.3176C300.368 45.742 301.335 45.3288 302.634 45.0779L306.552 44.3031C306.552 43.4619 306.36 42.8346 305.977 42.4214C305.593 41.9934 305.025 41.7794 304.272 41.7794C303.593 41.7794 303.055 41.9417 302.656 42.2664C302.272 42.5764 302.007 43.0265 301.859 43.6168L298.981 43.484C299.217 42.2295 299.793 41.2702 300.708 40.6061C301.623 39.9272 302.811 39.5878 304.272 39.5878C305.955 39.5878 307.224 40.0158 308.08 40.8718C308.95 41.713 309.386 42.9232 309.386 44.5023V48.797C309.386 49.1069 309.437 49.3209 309.541 49.439C309.659 49.557 309.829 49.6161 310.05 49.6161H310.426V51.6749C310.338 51.7044 310.19 51.7265 309.984 51.7413C309.792 51.756 309.592 51.7634 309.386 51.7634C308.899 51.7634 308.463 51.6896 308.08 51.542C307.696 51.3797 307.401 51.1067 307.194 50.723C306.988 50.3245 306.884 49.7858 306.884 49.1069L307.128 49.284C307.01 49.8006 306.752 50.2654 306.353 50.6787C305.969 51.0772 305.482 51.3871 304.892 51.6085C304.302 51.8298 303.637 51.9405 302.9 51.9405ZM303.475 49.8817C304.11 49.8817 304.656 49.7563 305.113 49.5054C305.571 49.2545 305.925 48.9077 306.176 48.4649C306.427 48.0222 306.552 47.4983 306.552 46.8932V46.229L303.497 46.8489C302.863 46.9817 302.405 47.181 302.125 47.4466C301.859 47.6975 301.726 48.0296 301.726 48.4428C301.726 48.9003 301.874 49.2545 302.169 49.5054C302.479 49.7563 302.914 49.8817 303.475 49.8817ZM303.055 38.5252L304.405 35.4259H307.261L305.268 38.5252H303.055Z" fill="#00FFC2"/>
<path d="M311.728 51.6749V39.3886C311.728 38.326 312.023 37.4921 312.613 36.887C313.218 36.2672 314.141 35.9572 315.38 35.9572H317.683V38.1489H315.912C315.454 38.1489 315.115 38.2669 314.893 38.5031C314.687 38.7392 314.583 39.086 314.583 39.5435V51.6749H311.728ZM310.045 42.355V40.1634H317.528V42.355H310.045Z" fill="#00FFC2"/>
<path d="M323.033 51.9405C321.852 51.9405 320.826 51.6896 319.955 51.1878C319.085 50.6713 318.413 49.9481 317.941 49.0184C317.469 48.0886 317.233 47.0039 317.233 45.7642C317.233 44.5245 317.469 43.4471 317.941 42.5321C318.413 41.6023 319.077 40.8791 319.933 40.3626C320.804 39.8461 321.815 39.5878 322.966 39.5878C324.088 39.5878 325.069 39.8387 325.91 40.3405C326.766 40.8422 327.423 41.5654 327.881 42.5099C328.338 43.4545 328.567 44.5909 328.567 45.9191V46.5611H320.177C320.236 47.5942 320.516 48.3764 321.018 48.9077C321.535 49.4242 322.213 49.6825 323.055 49.6825C323.689 49.6825 324.213 49.5423 324.626 49.2619C325.054 48.9667 325.35 48.5609 325.512 48.0443L328.412 48.2214C328.087 49.3726 327.445 50.2802 326.486 50.9443C325.542 51.6085 324.39 51.9405 323.033 51.9405ZM320.177 44.6573H325.645C325.586 43.698 325.313 42.9896 324.826 42.5321C324.339 42.0598 323.719 41.8237 322.966 41.8237C322.214 41.8237 321.586 42.0672 321.085 42.5542C320.597 43.0412 320.295 43.7423 320.177 44.6573Z" fill="#00FFC2"/>
<path d="M334.656 55.2611C333.623 55.2611 332.737 55.1209 331.999 54.8405C331.262 54.5601 330.664 54.1616 330.206 53.6451C329.764 53.1433 329.454 52.5604 329.277 51.8962L332.199 51.697C332.346 52.1398 332.597 52.4866 332.951 52.7375C333.32 52.9884 333.889 53.1138 334.656 53.1138C335.527 53.1138 336.198 52.9146 336.671 52.5161C337.143 52.1324 337.379 51.5273 337.379 50.7008V49.1955C337.098 49.771 336.648 50.2359 336.029 50.5901C335.409 50.9296 334.715 51.0993 333.948 51.0993C332.974 51.0993 332.103 50.8632 331.335 50.3909C330.583 49.9039 329.992 49.2324 329.564 48.3764C329.136 47.5056 328.922 46.5021 328.922 45.3657C328.922 44.2293 329.129 43.2331 329.542 42.3771C329.97 41.5064 330.561 40.8275 331.313 40.3405C332.066 39.8387 332.929 39.5878 333.903 39.5878C334.759 39.5878 335.497 39.7797 336.117 40.1634C336.737 40.5471 337.187 41.0562 337.467 41.6909V39.8534H340.235V50.6344C340.235 51.638 339.999 52.4866 339.526 53.1802C339.069 53.8739 338.419 54.3904 337.578 54.7298C336.752 55.084 335.778 55.2611 334.656 55.2611ZM334.612 48.8855C335.453 48.8855 336.124 48.5756 336.626 47.9558C337.128 47.3212 337.386 46.4504 337.401 45.3435C337.416 44.6056 337.305 43.9784 337.069 43.4619C336.848 42.9306 336.523 42.5247 336.095 42.2443C335.682 41.9491 335.187 41.8015 334.612 41.8015C333.741 41.8015 333.062 42.1262 332.575 42.7756C332.103 43.4102 331.867 44.2662 331.867 45.3435C331.867 46.4209 332.11 47.2843 332.597 47.9336C333.099 48.5682 333.77 48.8855 334.612 48.8855Z" fill="#00FFC2"/>
<path d="M347.083 51.9405C345.917 51.9405 344.891 51.6896 344.006 51.1878C343.135 50.6713 342.456 49.9481 341.969 49.0184C341.497 48.0886 341.261 47.0039 341.261 45.7642C341.261 44.5097 341.497 43.425 341.969 42.5099C342.456 41.5802 343.135 40.8644 344.006 40.3626C344.891 39.8461 345.917 39.5878 347.083 39.5878C348.249 39.5878 349.267 39.8461 350.138 40.3626C351.009 40.8644 351.68 41.5802 352.152 42.5099C352.639 43.425 352.883 44.5097 352.883 45.7642C352.883 47.0039 352.639 48.0886 352.152 49.0184C351.68 49.9481 351.009 50.6713 350.138 51.1878C349.267 51.6896 348.249 51.9405 347.083 51.9405ZM347.083 49.6382C347.998 49.6382 348.699 49.2988 349.186 48.6199C349.688 47.941 349.939 46.9891 349.939 45.7642C349.939 44.554 349.688 43.6094 349.186 42.9306C348.699 42.2369 347.998 41.8901 347.083 41.8901C346.168 41.8901 345.459 42.2369 344.958 42.9306C344.456 43.6094 344.205 44.554 344.205 45.7642C344.205 46.9891 344.456 47.941 344.958 48.6199C345.459 49.2988 346.168 49.6382 347.083 49.6382Z" fill="#00FFC2"/>
<path d="M148.803 2.13102C148.803 1.69437 149.157 1.3404 149.594 1.3404C150.03 1.3404 150.384 1.69437 150.384 2.13102V62.2185C150.384 62.6552 150.03 63.0091 149.594 63.0091C149.157 63.0091 148.803 62.6552 148.803 62.2185V2.13102Z" fill="white"/>
<path d="M78.3544 63.3895C76.0679 63.3895 74.3333 61.6549 74.3333 59.3684C74.3333 57.0819 76.0679 55.3473 78.3544 55.3473C80.6409 55.3473 82.3755 57.0819 82.3755 59.3684C82.3755 61.6549 80.6409 63.3895 78.3544 63.3895ZM78.3544 62.7137C80.2354 62.7137 81.6659 61.272 81.6659 59.3684C81.6659 57.4648 80.2354 56.0231 78.3544 56.0231C76.4734 56.0231 75.0316 57.4648 75.0316 59.3684C75.0316 61.272 76.4734 62.7137 78.3544 62.7137ZM78.3769 61.6099C77.0929 61.6099 76.1242 60.6412 76.1242 59.3684C76.1242 58.0956 77.0929 57.1269 78.3769 57.1269C79.447 57.1269 80.3143 57.8028 80.5395 58.7602H79.7398C79.5371 58.2308 79.0189 57.8816 78.3769 57.8816C77.5321 57.8816 76.9014 58.5349 76.9014 59.3684C76.9014 60.2019 77.5321 60.8552 78.3769 60.8552C79.0189 60.8552 79.5371 60.506 79.7398 59.9766H80.5395C80.3143 60.934 79.447 61.6099 78.3769 61.6099Z" fill="white"/>
<path d="M10.6441 27.6748L0 0.473072H6.82014L13.8768 19.5143L20.8941 0.473072H27.5959L16.9518 27.6748H10.6441Z" fill="white"/>
<path d="M29.9992 27.6748V0.473072H48.0548V6.22879H36.1097V11.1172H46.7538V16.8729H36.1097V21.919H48.2519V27.6748H29.9992Z" fill="white"/>
<path d="M51.8187 27.6748V0.473072H64.0792C69.4801 0.473072 73.5407 4.37593 73.5407 9.57973C73.5407 13.6008 71.057 16.7547 67.3513 17.8979L68.6523 19.7902C69.6772 21.2489 71.057 21.919 72.8311 21.919H74.0137V27.6748H72.1609C67.8244 27.6748 64.7494 26.019 62.8965 22.6287L60.3735 18.371H57.9293V27.6748H51.8187ZM63.9609 6.22879H57.9293V13.0489H63.9609C65.8532 13.0489 67.2725 11.5903 67.2725 9.65857C67.2725 7.68744 65.8532 6.22879 63.9609 6.22879Z" fill="white"/>
<path d="M87.8684 28.1478C81.403 28.1478 76.5146 23.4171 76.5146 17.1095V0.473072H82.6252V17.0306C82.6252 20.0268 84.8328 22.2739 87.8684 22.2739C90.8645 22.2739 93.1116 20.0268 93.1116 17.0306V0.473072H99.2221V17.1095C99.2221 23.4171 94.2943 28.1478 87.8684 28.1478Z" fill="white"/>
<path d="M112.493 28.1478C106.54 28.1478 102.124 24.3633 102.124 19.5143H108.393C108.393 21.2883 110.245 22.7075 112.571 22.7075C114.661 22.7075 116.395 21.6037 116.395 20.0662C116.395 15.8085 102.558 17.6614 102.558 8.43647C102.558 3.31151 106.855 0 112.335 0C117.972 0 122.269 3.54805 122.269 8.27878H116.001C116.001 6.66244 114.385 5.44034 112.295 5.44034C110.403 5.44034 108.826 6.38649 108.826 7.92397C108.826 12.2211 122.664 9.89511 122.664 19.3566C122.664 24.6786 118.209 28.1478 112.493 28.1478Z" fill="white"/>
<path d="M11.3932 63.1478C5.44034 63.1478 1.02499 59.3633 1.02499 54.5143H7.29321C7.29321 56.2883 9.14608 57.7075 11.472 57.7075C13.5614 57.7075 15.296 56.6037 15.296 55.0662C15.296 50.8085 1.45864 52.6614 1.45864 43.4365C1.45864 38.3115 5.75572 35 11.2355 35C16.8729 35 21.17 38.548 21.17 43.2788H14.9018C14.9018 41.6624 13.2855 40.4403 11.1961 40.4403C9.30377 40.4403 7.72686 41.3865 7.72686 42.924C7.72686 47.2211 21.5642 44.8951 21.5642 54.3566C21.5642 59.6786 17.1095 63.1478 11.3932 63.1478Z" fill="white"/>
<path d="M29.936 62.6748V41.2288H22.8005V35.4731H43.1821V41.2288H36.0466V62.6748H29.936Z" fill="white"/>
<path d="M46.3904 62.6748V35.4731H57.1134C65.0374 35.4731 70.9902 41.3076 70.9902 49.0739C70.9902 56.8402 65.0374 62.6748 57.1134 62.6748H46.3904ZM56.9557 41.2288H52.5009V56.919H56.9557C61.4105 56.919 64.722 53.5287 64.722 49.0739C64.722 44.6192 61.4105 41.2288 56.9557 41.2288Z" fill="white"/>
</svg>
