<svg width="369" height="70" viewBox="0 0 369 70" fill="none" xmlns="http://www.w3.org/2000/svg">
<path d="M366.803 7H152.803V62H366.803V7Z" fill="#012129"/>
<path d="M155.803 2.5C155.803 3.88071 154.684 5 153.303 5C151.922 5 150.803 3.88071 150.803 2.5C150.803 1.11929 151.922 0 153.303 0C154.684 0 155.803 1.11929 155.803 2.5Z" fill="#00FFC2"/>
<path d="M153.803 63H152.803V3H153.803V63Z" fill="#00FFC2"/>
<path d="M368.803 67.5C368.803 66.1193 367.684 65 366.303 65C364.922 65 363.803 66.1193 363.803 67.5C363.803 68.8807 364.922 70 366.303 70C367.684 70 368.803 68.8807 368.803 67.5Z" fill="#00FFC2"/>
<path d="M366.803 4H365.803V67H366.803V4Z" fill="#00FFC2"/>
<path d="M166.574 29V13.2824H172.662C174.506 13.2824 175.945 13.7251 176.979 14.6106C178.012 15.4961 178.528 16.7211 178.528 18.2854C178.528 19.3333 178.292 20.2409 177.82 21.0084C177.347 21.761 176.676 22.3366 175.805 22.7351C174.934 23.1336 173.887 23.3328 172.662 23.3328H169.452V29H166.574ZM169.452 20.8313H172.529C173.503 20.8313 174.248 20.6173 174.765 20.1893C175.296 19.7613 175.562 19.1267 175.562 18.2854C175.562 17.459 175.296 16.8391 174.765 16.4259C174.248 15.9979 173.503 15.7839 172.529 15.7839H169.452V20.8313Z" fill="url(#paint0_linear_52_2189)"/>
<path d="M182.814 29.2656C181.574 29.2656 180.578 28.9852 179.825 28.4244C179.073 27.8489 178.696 27.0519 178.696 26.0336C178.696 25.0152 179.014 24.2183 179.648 23.6427C180.283 23.0671 181.25 22.6539 182.548 22.403L186.467 21.6282C186.467 20.787 186.275 20.1598 185.891 19.7465C185.507 19.3185 184.939 19.1045 184.187 19.1045C183.508 19.1045 182.969 19.2669 182.57 19.5916C182.187 19.9015 181.921 20.3516 181.774 20.9419L178.896 20.8091C179.132 19.5547 179.707 18.5954 180.622 17.9312C181.537 17.2524 182.725 16.9129 184.187 16.9129C185.869 16.9129 187.138 17.3409 187.994 18.1969C188.865 19.0381 189.3 20.2483 189.3 21.8274V26.1221C189.3 26.4321 189.352 26.646 189.455 26.7641C189.573 26.8822 189.743 26.9412 189.964 26.9412H190.341V29C190.252 29.0295 190.105 29.0517 189.898 29.0664C189.706 29.0812 189.507 29.0886 189.3 29.0886C188.813 29.0886 188.378 29.0148 187.994 28.8672C187.61 28.7048 187.315 28.4318 187.109 28.0481C186.902 27.6496 186.799 27.1109 186.799 26.4321L187.042 26.6091C186.924 27.1257 186.666 27.5906 186.267 28.0038C185.884 28.4023 185.397 28.7122 184.806 28.9336C184.216 29.155 183.552 29.2656 182.814 29.2656ZM183.39 27.2069C184.024 27.2069 184.57 27.0814 185.028 26.8305C185.485 26.5796 185.839 26.2328 186.09 25.7901C186.341 25.3473 186.467 24.8234 186.467 24.2183V23.5542L183.412 24.174C182.777 24.3068 182.32 24.5061 182.039 24.7717C181.774 25.0226 181.641 25.3547 181.641 25.7679C181.641 26.2254 181.788 26.5796 182.083 26.8305C182.393 27.0814 182.829 27.2069 183.39 27.2069Z" fill="url(#paint1_linear_52_2189)"/>
<path d="M191.008 29V17.1786H193.664L193.775 20.4549L193.531 20.4107C193.708 19.2743 194.04 18.4552 194.527 17.9534C195.029 17.4368 195.708 17.1786 196.564 17.1786H197.649V19.6137H196.542C195.937 19.6137 195.435 19.7022 195.037 19.8793C194.638 20.0564 194.336 20.3369 194.129 20.7206C193.937 21.0895 193.841 21.5766 193.841 22.1816V29H191.008Z" fill="url(#paint2_linear_52_2189)"/>
<path d="M201.524 29.2656C200.284 29.2656 199.288 28.9852 198.535 28.4244C197.783 27.8489 197.406 27.0519 197.406 26.0336C197.406 25.0152 197.724 24.2183 198.358 23.6427C198.993 23.0671 199.96 22.6539 201.258 22.403L205.177 21.6282C205.177 20.787 204.985 20.1598 204.601 19.7465C204.217 19.3185 203.649 19.1045 202.897 19.1045C202.218 19.1045 201.679 19.2669 201.28 19.5916C200.897 19.9015 200.631 20.3516 200.484 20.9419L197.606 20.8091C197.842 19.5547 198.417 18.5954 199.332 17.9312C200.247 17.2524 201.435 16.9129 202.897 16.9129C204.579 16.9129 205.848 17.3409 206.704 18.1969C207.575 19.0381 208.01 20.2483 208.01 21.8274V26.1221C208.01 26.4321 208.062 26.646 208.165 26.7641C208.283 26.8822 208.453 26.9412 208.674 26.9412H209.051V29C208.962 29.0295 208.815 29.0517 208.608 29.0664C208.416 29.0812 208.217 29.0886 208.01 29.0886C207.523 29.0886 207.088 29.0148 206.704 28.8672C206.32 28.7048 206.025 28.4318 205.819 28.0481C205.612 27.6496 205.509 27.1109 205.509 26.4321L205.752 26.6091C205.634 27.1257 205.376 27.5906 204.977 28.0038C204.594 28.4023 204.107 28.7122 203.516 28.9336C202.926 29.155 202.262 29.2656 201.524 29.2656ZM202.1 27.2069C202.734 27.2069 203.28 27.0814 203.738 26.8305C204.195 26.5796 204.549 26.2328 204.8 25.7901C205.051 25.3473 205.177 24.8234 205.177 24.2183V23.5542L202.122 24.174C201.487 24.3068 201.03 24.5061 200.749 24.7717C200.484 25.0226 200.351 25.3547 200.351 25.7679C200.351 26.2254 200.498 26.5796 200.793 26.8305C201.103 27.0814 201.539 27.2069 202.1 27.2069Z" fill="url(#paint3_linear_52_2189)"/>
<path d="M217.251 29.2656C216.011 29.2656 215.015 28.9852 214.262 28.4244C213.509 27.8489 213.133 27.0519 213.133 26.0336C213.133 25.0152 213.45 24.2183 214.085 23.6427C214.72 23.0671 215.686 22.6539 216.985 22.403L220.903 21.6282C220.903 20.787 220.711 20.1598 220.328 19.7465C219.944 19.3185 219.376 19.1045 218.623 19.1045C217.944 19.1045 217.406 19.2669 217.007 19.5916C216.623 19.9015 216.358 20.3516 216.21 20.9419L213.332 20.8091C213.568 19.5547 214.144 18.5954 215.059 17.9312C215.974 17.2524 217.162 16.9129 218.623 16.9129C220.306 16.9129 221.575 17.3409 222.431 18.1969C223.302 19.0381 223.737 20.2483 223.737 21.8274V26.1221C223.737 26.4321 223.789 26.646 223.892 26.7641C224.01 26.8822 224.18 26.9412 224.401 26.9412H224.777V29C224.689 29.0295 224.541 29.0517 224.335 29.0664C224.143 29.0812 223.944 29.0886 223.737 29.0886C223.25 29.0886 222.814 29.0148 222.431 28.8672C222.047 28.7048 221.752 28.4318 221.545 28.0481C221.339 27.6496 221.235 27.1109 221.235 26.4321L221.479 26.6091C221.361 27.1257 221.103 27.5906 220.704 28.0038C220.32 28.4023 219.833 28.7122 219.243 28.9336C218.653 29.155 217.989 29.2656 217.251 29.2656ZM217.826 27.2069C218.461 27.2069 219.007 27.0814 219.464 26.8305C219.922 26.5796 220.276 26.2328 220.527 25.7901C220.778 25.3473 220.903 24.8234 220.903 24.2183V23.5542L217.848 24.174C217.214 24.3068 216.756 24.5061 216.476 24.7717C216.21 25.0226 216.077 25.3547 216.077 25.7679C216.077 26.2254 216.225 26.5796 216.52 26.8305C216.83 27.0814 217.265 27.2069 217.826 27.2069Z" fill="url(#paint4_linear_52_2189)"/>
<path d="M230.362 32.5863C229.329 32.5863 228.443 32.4461 227.705 32.1657C226.967 31.8853 226.37 31.4868 225.912 30.9702C225.469 30.4685 225.16 29.8855 224.982 29.2214L227.905 29.0221C228.052 29.4649 228.303 29.8117 228.657 30.0626C229.026 30.3135 229.594 30.4389 230.362 30.4389C231.233 30.4389 231.904 30.2397 232.376 29.8412C232.849 29.4575 233.085 28.8524 233.085 28.0259V26.5206C232.804 27.0962 232.354 27.5611 231.734 27.9153C231.115 28.2547 230.421 28.4244 229.653 28.4244C228.679 28.4244 227.809 28.1883 227.041 27.716C226.289 27.229 225.698 26.5575 225.27 25.7015C224.842 24.8308 224.628 23.8272 224.628 22.6908C224.628 21.5544 224.835 20.5582 225.248 19.7022C225.676 18.8315 226.266 18.1526 227.019 17.6656C227.772 17.1638 228.635 16.9129 229.609 16.9129C230.465 16.9129 231.203 17.1048 231.823 17.4885C232.443 17.8722 232.893 18.3814 233.173 19.016V17.1786H235.941V27.9595C235.941 28.9631 235.704 29.8117 235.232 30.5054C234.775 31.199 234.125 31.7155 233.284 32.055C232.458 32.4092 231.484 32.5863 230.362 32.5863ZM230.318 26.2107C231.159 26.2107 231.83 25.9007 232.332 25.2809C232.834 24.6463 233.092 23.7755 233.107 22.6687C233.122 21.9308 233.011 21.3035 232.775 20.787C232.553 20.2557 232.229 19.8498 231.801 19.5694C231.388 19.2743 230.893 19.1267 230.318 19.1267C229.447 19.1267 228.768 19.4514 228.281 20.1007C227.809 20.7353 227.573 21.5913 227.573 22.6687C227.573 23.746 227.816 24.6094 228.303 25.2588C228.805 25.8934 229.476 26.2107 230.318 26.2107Z" fill="url(#paint5_linear_52_2189)"/>
<path d="M242.767 29.2656C241.586 29.2656 240.56 29.0148 239.69 28.513C238.819 27.9964 238.147 27.2733 237.675 26.3435C237.203 25.4137 236.967 24.329 236.967 23.0893C236.967 21.8496 237.203 20.7722 237.675 19.8572C238.147 18.9274 238.811 18.2043 239.667 17.6877C240.538 17.1712 241.549 16.9129 242.7 16.9129C243.822 16.9129 244.803 17.1638 245.645 17.6656C246.501 18.1674 247.157 18.8905 247.615 19.8351C248.072 20.7796 248.301 21.916 248.301 23.2442V23.8862H239.911C239.97 24.9193 240.25 25.7015 240.752 26.2328C241.269 26.7494 241.948 27.0076 242.789 27.0076C243.423 27.0076 243.947 26.8674 244.361 26.587C244.789 26.2918 245.084 25.886 245.246 25.3694L248.146 25.5466C247.821 26.6977 247.179 27.6053 246.22 28.2695C245.276 28.9336 244.124 29.2656 242.767 29.2656ZM239.911 21.9824H245.379C245.32 21.0231 245.047 20.3147 244.56 19.8572C244.073 19.3849 243.453 19.1488 242.7 19.1488C241.948 19.1488 241.32 19.3923 240.819 19.8793C240.332 20.3664 240.029 21.0674 239.911 21.9824ZM239.291 15.8946L241.372 12.6625H244.206L246.287 15.8946H244.228L242.523 13.548H243.054L241.35 15.8946H239.291Z" fill="url(#paint6_linear_52_2189)"/>
<path d="M249.343 29V17.1786H251.911L252.021 20.4992L251.689 20.3664C251.807 19.5399 252.051 18.8758 252.42 18.374C252.789 17.8722 253.239 17.5033 253.77 17.2671C254.302 17.031 254.884 16.9129 255.519 16.9129C256.39 16.9129 257.12 17.1048 257.711 17.4885C258.316 17.8722 258.773 18.4035 259.083 19.0824C259.393 19.7465 259.548 20.5213 259.548 21.4068V29H256.715V22.3145C256.715 21.6503 256.648 21.0895 256.515 20.632C256.382 20.1745 256.161 19.8277 255.851 19.5916C255.556 19.3407 255.157 19.2152 254.656 19.2152C253.903 19.2152 253.298 19.4809 252.84 20.0122C252.398 20.5435 252.176 21.3109 252.176 22.3145V29H249.343Z" fill="url(#paint7_linear_52_2189)"/>
<path d="M266.32 29.2656C265.139 29.2656 264.113 29.0148 263.243 28.513C262.372 27.9964 261.693 27.2733 261.206 26.3435C260.734 25.4137 260.498 24.329 260.498 23.0893C260.498 21.8496 260.734 20.7722 261.206 19.8572C261.693 18.9274 262.372 18.2043 263.243 17.6877C264.113 17.1712 265.139 16.9129 266.32 16.9129C267.323 16.9129 268.216 17.09 268.998 17.4442C269.781 17.7984 270.415 18.3076 270.902 18.9717C271.404 19.6211 271.714 20.418 271.832 21.3626L268.91 21.5175C268.792 20.7648 268.497 20.1967 268.024 19.8129C267.567 19.4145 266.999 19.2152 266.32 19.2152C265.405 19.2152 264.696 19.562 264.195 20.2557C263.693 20.9346 263.442 21.8791 263.442 23.0893C263.442 24.3142 263.693 25.2661 264.195 25.945C264.696 26.6239 265.405 26.9634 266.32 26.9634C267.013 26.9634 267.589 26.7641 268.046 26.3656C268.519 25.9672 268.807 25.3473 268.91 24.5061L271.832 24.6389C271.714 25.5834 271.411 26.4025 270.924 27.0962C270.437 27.7898 269.803 28.3285 269.021 28.7122C268.238 29.0812 267.338 29.2656 266.32 29.2656Z" fill="url(#paint8_linear_52_2189)"/>
<path d="M272.636 29V17.1786H275.469V29H272.636ZM272.592 15.6068V13.0831H275.536V15.6068H272.592Z" fill="url(#paint9_linear_52_2189)"/>
<path d="M280.623 29.2656C279.383 29.2656 278.387 28.9852 277.634 28.4244C276.882 27.8489 276.505 27.0519 276.505 26.0336C276.505 25.0152 276.823 24.2183 277.457 23.6427C278.092 23.0671 279.058 22.6539 280.357 22.403L284.276 21.6282C284.276 20.787 284.084 20.1598 283.7 19.7465C283.316 19.3185 282.748 19.1045 281.995 19.1045C281.316 19.1045 280.778 19.2669 280.379 19.5916C279.996 19.9015 279.73 20.3516 279.582 20.9419L276.704 20.8091C276.941 19.5547 277.516 18.5954 278.431 17.9312C279.346 17.2524 280.534 16.9129 281.995 16.9129C283.678 16.9129 284.947 17.3409 285.803 18.1969C286.674 19.0381 287.109 20.2483 287.109 21.8274V26.1221C287.109 26.4321 287.161 26.646 287.264 26.7641C287.382 26.8822 287.552 26.9412 287.773 26.9412H288.15V29C288.061 29.0295 287.913 29.0517 287.707 29.0664C287.515 29.0812 287.316 29.0886 287.109 29.0886C286.622 29.0886 286.187 29.0148 285.803 28.8672C285.419 28.7048 285.124 28.4318 284.918 28.0481C284.711 27.6496 284.608 27.1109 284.608 26.4321L284.851 26.6091C284.733 27.1257 284.475 27.5906 284.076 28.0038C283.693 28.4023 283.206 28.7122 282.615 28.9336C282.025 29.155 281.361 29.2656 280.623 29.2656ZM281.198 27.2069C281.833 27.2069 282.379 27.0814 282.837 26.8305C283.294 26.5796 283.648 26.2328 283.899 25.7901C284.15 25.3473 284.276 24.8234 284.276 24.2183V23.5542L281.221 24.174C280.586 24.3068 280.128 24.5061 279.848 24.7717C279.582 25.0226 279.45 25.3547 279.45 25.7679C279.45 26.2254 279.597 26.5796 279.892 26.8305C280.202 27.0814 280.638 27.2069 281.198 27.2069Z" fill="url(#paint10_linear_52_2189)"/>
<path d="M293.491 29.2656C292.325 29.2656 291.343 29.0959 290.546 28.7565C289.764 28.417 289.159 27.9448 288.731 27.3397C288.303 26.7346 288.06 26.0483 288 25.2809L290.901 25.1481C291.004 25.7679 291.262 26.2476 291.675 26.587C292.089 26.9265 292.701 27.0962 293.513 27.0962C294.177 27.0962 294.693 26.9929 295.062 26.7862C295.446 26.5649 295.638 26.2254 295.638 25.7679C295.638 25.5023 295.572 25.2809 295.439 25.1038C295.306 24.9267 295.055 24.7717 294.686 24.6389C294.317 24.5061 293.771 24.3733 293.048 24.2404C291.838 24.0338 290.886 23.7829 290.192 23.4878C289.498 23.1778 289.004 22.7941 288.709 22.3366C288.428 21.8791 288.288 21.3109 288.288 20.632C288.288 19.5251 288.709 18.6323 289.55 17.9534C290.406 17.2597 291.653 16.9129 293.291 16.9129C294.354 16.9129 295.247 17.09 295.97 17.4442C296.693 17.7837 297.254 18.2559 297.652 18.861C298.066 19.4514 298.324 20.1302 298.427 20.8977L295.572 21.0305C295.498 20.632 295.365 20.2852 295.173 19.99C294.981 19.6949 294.723 19.4735 294.398 19.3259C294.074 19.1636 293.69 19.0824 293.247 19.0824C292.583 19.0824 292.081 19.2152 291.742 19.4809C291.402 19.7465 291.233 20.1007 291.233 20.5435C291.233 20.8534 291.306 21.1117 291.454 21.3183C291.616 21.5249 291.875 21.6946 292.229 21.8274C292.583 21.9455 293.055 22.0562 293.646 22.1595C294.885 22.3514 295.859 22.6023 296.568 22.9122C297.291 23.2074 297.8 23.5911 298.095 24.0633C298.405 24.5208 298.56 25.0743 298.56 25.7236C298.56 26.4763 298.346 27.1183 297.918 27.6496C297.505 28.1809 296.915 28.5868 296.147 28.8672C295.394 29.1328 294.509 29.2656 293.491 29.2656Z" fill="url(#paint11_linear_52_2189)"/>
<path d="M308.987 29.2656C307.806 29.2656 306.78 29.0148 305.91 28.513C305.039 27.9964 304.367 27.2733 303.895 26.3435C303.423 25.4137 303.187 24.329 303.187 23.0893C303.187 21.8496 303.423 20.7722 303.895 19.8572C304.367 18.9274 305.031 18.2043 305.887 17.6877C306.758 17.1712 307.769 16.9129 308.92 16.9129C310.042 16.9129 311.023 17.1638 311.865 17.6656C312.721 18.1674 313.377 18.8905 313.835 19.8351C314.292 20.7796 314.521 21.916 314.521 23.2442V23.8862H306.131C306.19 24.9193 306.47 25.7015 306.972 26.2328C307.489 26.7494 308.168 27.0076 309.009 27.0076C309.643 27.0076 310.167 26.8674 310.581 26.587C311.009 26.2918 311.304 25.886 311.466 25.3694L314.366 25.5466C314.041 26.6977 313.399 27.6053 312.44 28.2695C311.496 28.9336 310.344 29.2656 308.987 29.2656ZM306.131 21.9824H311.599C311.54 21.0231 311.267 20.3147 310.78 19.8572C310.293 19.3849 309.673 19.1488 308.92 19.1488C308.168 19.1488 307.54 19.3923 307.039 19.8793C306.552 20.3664 306.249 21.0674 306.131 21.9824Z" fill="url(#paint12_linear_52_2189)"/>
<path d="M171.4 55.5863C170.367 55.5863 169.481 55.4461 168.743 55.1657C168.005 54.8853 167.408 54.4868 166.95 53.9702C166.507 53.4685 166.198 52.8855 166.02 52.2214L168.943 52.0221C169.09 52.4649 169.341 52.8117 169.695 53.0626C170.064 53.3135 170.632 53.4389 171.4 53.4389C172.271 53.4389 172.942 53.2397 173.414 52.8412C173.887 52.4575 174.123 51.8524 174.123 51.026V49.5206C173.842 50.0962 173.392 50.5611 172.772 50.9153C172.153 51.2547 171.459 51.4244 170.691 51.4244C169.717 51.4244 168.847 51.1883 168.079 50.716C167.327 50.229 166.736 49.5575 166.308 48.7015C165.88 47.8308 165.666 46.8272 165.666 45.6908C165.666 44.5544 165.873 43.5582 166.286 42.7022C166.714 41.8315 167.304 41.1526 168.057 40.6656C168.81 40.1638 169.673 39.9129 170.647 39.9129C171.503 39.9129 172.241 40.1048 172.861 40.4885C173.481 40.8722 173.931 41.3814 174.211 42.016V40.1786H176.979V50.9595C176.979 51.9631 176.742 52.8117 176.27 53.5054C175.813 54.199 175.163 54.7155 174.322 55.055C173.496 55.4092 172.521 55.5863 171.4 55.5863ZM171.356 49.2107C172.197 49.2107 172.868 48.9007 173.37 48.2809C173.872 47.6463 174.13 46.7755 174.145 45.6687C174.16 44.9308 174.049 44.3035 173.813 43.787C173.591 43.2557 173.267 42.8498 172.839 42.5694C172.426 42.2743 171.931 42.1267 171.356 42.1267C170.485 42.1267 169.806 42.4514 169.319 43.1007C168.847 43.7353 168.611 44.5913 168.611 45.6687C168.611 46.746 168.854 47.6094 169.341 48.2588C169.843 48.8934 170.514 49.2107 171.356 49.2107Z" fill="url(#paint13_linear_52_2189)"/>
<path d="M183.805 52.2657C182.624 52.2657 181.598 52.0148 180.728 51.513C179.857 50.9964 179.185 50.2733 178.713 49.3435C178.241 48.4137 178.005 47.329 178.005 46.0893C178.005 44.8496 178.241 43.7722 178.713 42.8572C179.185 41.9274 179.849 41.2043 180.705 40.6877C181.576 40.1712 182.587 39.9129 183.738 39.9129C184.86 39.9129 185.841 40.1638 186.683 40.6656C187.539 41.1674 188.195 41.8905 188.653 42.8351C189.11 43.7796 189.339 44.916 189.339 46.2443V46.8862H180.949C181.008 47.9193 181.288 48.7015 181.79 49.2328C182.307 49.7494 182.986 50.0076 183.827 50.0076C184.461 50.0076 184.985 49.8674 185.399 49.587C185.827 49.2918 186.122 48.886 186.284 48.3694L189.184 48.5466C188.859 49.6977 188.217 50.6053 187.258 51.2695C186.314 51.9336 185.162 52.2657 183.805 52.2657ZM180.949 44.9824H186.417C186.358 44.0231 186.085 43.3147 185.598 42.8572C185.111 42.3849 184.491 42.1488 183.738 42.1488C182.986 42.1488 182.358 42.3923 181.857 42.8793C181.37 43.3664 181.067 44.0674 180.949 44.9824Z" fill="url(#paint14_linear_52_2189)"/>
<path d="M195.185 52.2657C194.019 52.2657 193.037 52.0959 192.24 51.7565C191.458 51.417 190.853 50.9448 190.425 50.3397C189.997 49.7346 189.753 49.0483 189.694 48.2809L192.594 48.1481C192.698 48.7679 192.956 49.2476 193.369 49.587C193.782 49.9265 194.395 50.0962 195.207 50.0962C195.871 50.0962 196.387 49.9929 196.756 49.7863C197.14 49.5649 197.332 49.2254 197.332 48.7679C197.332 48.5023 197.265 48.2809 197.133 48.1038C197 47.9267 196.749 47.7717 196.38 47.6389C196.011 47.5061 195.465 47.3733 194.742 47.2404C193.532 47.0338 192.58 46.7829 191.886 46.4878C191.192 46.1778 190.698 45.7941 190.403 45.3366C190.122 44.8791 189.982 44.3109 189.982 43.632C189.982 42.5251 190.403 41.6323 191.244 40.9534C192.1 40.2597 193.347 39.9129 194.985 39.9129C196.048 39.9129 196.941 40.09 197.664 40.4442C198.387 40.7837 198.948 41.2559 199.346 41.861C199.76 42.4514 200.018 43.1302 200.121 43.8977L197.265 44.0305C197.192 43.632 197.059 43.2852 196.867 42.99C196.675 42.6949 196.417 42.4735 196.092 42.3259C195.767 42.1636 195.384 42.0824 194.941 42.0824C194.277 42.0824 193.775 42.2152 193.436 42.4809C193.096 42.7465 192.926 43.1007 192.926 43.5435C192.926 43.8534 193 44.1117 193.148 44.3183C193.31 44.5249 193.568 44.6946 193.923 44.8274C194.277 44.9455 194.749 45.0562 195.339 45.1595C196.579 45.3514 197.553 45.6023 198.262 45.9122C198.985 46.2074 199.494 46.5911 199.789 47.0633C200.099 47.5208 200.254 48.0743 200.254 48.7236C200.254 49.4763 200.04 50.1183 199.612 50.6496C199.199 51.1809 198.608 51.5868 197.841 51.8672C197.088 52.1328 196.203 52.2657 195.185 52.2657Z" fill="url(#paint15_linear_52_2189)"/>
<path d="M205.619 52C204.438 52 203.568 51.727 203.007 51.1809C202.461 50.6349 202.188 49.7789 202.188 48.613V37.4114H205.021V48.3473C205.021 48.8934 205.139 49.2771 205.375 49.4985C205.612 49.7051 205.98 49.8084 206.482 49.8084H208.143V52H205.619ZM200.328 42.3702V40.1786H208.143V42.3702H200.328Z" fill="url(#paint16_linear_52_2189)"/>
<path d="M213.989 52.2657C212.823 52.2657 211.797 52.0148 210.912 51.513C210.041 50.9964 209.362 50.2733 208.875 49.3435C208.403 48.4137 208.167 47.329 208.167 46.0893C208.167 44.8348 208.403 43.7501 208.875 42.8351C209.362 41.9053 210.041 41.1895 210.912 40.6877C211.797 40.1712 212.823 39.9129 213.989 39.9129C215.155 39.9129 216.173 40.1712 217.044 40.6877C217.914 41.1895 218.586 41.9053 219.058 42.8351C219.545 43.7501 219.789 44.8348 219.789 46.0893C219.789 47.329 219.545 48.4137 219.058 49.3435C218.586 50.2733 217.914 50.9964 217.044 51.513C216.173 52.0148 215.155 52.2657 213.989 52.2657ZM213.989 49.9633C214.904 49.9633 215.605 49.6239 216.092 48.945C216.594 48.2661 216.845 47.3142 216.845 46.0893C216.845 44.8791 216.594 43.9346 216.092 43.2557C215.605 42.562 214.904 42.2152 213.989 42.2152C213.074 42.2152 212.365 42.562 211.864 43.2557C211.362 43.9346 211.111 44.8791 211.111 46.0893C211.111 47.3142 211.362 48.2661 211.864 48.945C212.365 49.6239 213.074 49.9633 213.989 49.9633Z" fill="url(#paint17_linear_52_2189)"/>
<path d="M220.802 52V40.1786H223.459L223.569 43.4549L223.326 43.4106C223.503 42.2743 223.835 41.4552 224.322 40.9534C224.824 40.4368 225.503 40.1786 226.359 40.1786H227.443V42.6137H226.336C225.731 42.6137 225.23 42.7022 224.831 42.8793C224.433 43.0564 224.13 43.3369 223.924 43.7206C223.732 44.0895 223.636 44.5766 223.636 45.1816V52H220.802Z" fill="url(#paint18_linear_52_2189)"/>
<path d="M232.914 52.2657C231.734 52.2657 230.708 52.0148 229.837 51.513C228.967 50.9964 228.295 50.2733 227.823 49.3435C227.351 48.4137 227.114 47.329 227.114 46.0893C227.114 44.8496 227.351 43.7722 227.823 42.8572C228.295 41.9274 228.959 41.2043 229.815 40.6877C230.686 40.1712 231.697 39.9129 232.848 39.9129C233.97 39.9129 234.951 40.1638 235.792 40.6656C236.648 41.1674 237.305 41.8905 237.763 42.8351C238.22 43.7796 238.449 44.916 238.449 46.2443V46.8862H230.059C230.118 47.9193 230.398 48.7015 230.9 49.2328C231.416 49.7494 232.095 50.0076 232.937 50.0076C233.571 50.0076 234.095 49.8674 234.508 49.587C234.936 49.2918 235.232 48.886 235.394 48.3694L238.294 48.5466C237.969 49.6977 237.327 50.6053 236.368 51.2695C235.423 51.9336 234.272 52.2657 232.914 52.2657ZM230.059 44.9824H235.527C235.468 44.0231 235.195 43.3147 234.708 42.8572C234.221 42.3849 233.601 42.1488 232.848 42.1488C232.095 42.1488 231.468 42.3923 230.966 42.8793C230.479 43.3664 230.177 44.0674 230.059 44.9824Z" fill="url(#paint19_linear_52_2189)"/>
<path d="M244.294 52.2657C243.128 52.2657 242.147 52.0959 241.35 51.7565C240.568 51.417 239.963 50.9448 239.535 50.3397C239.107 49.7346 238.863 49.0483 238.804 48.2809L241.704 48.1481C241.808 48.7679 242.066 49.2476 242.479 49.587C242.892 49.9265 243.505 50.0962 244.316 50.0962C244.981 50.0962 245.497 49.9929 245.866 49.7863C246.25 49.5649 246.442 49.2254 246.442 48.7679C246.442 48.5023 246.375 48.2809 246.242 48.1038C246.11 47.9267 245.859 47.7717 245.49 47.6389C245.121 47.5061 244.575 47.3733 243.852 47.2404C242.641 47.0338 241.689 46.7829 240.996 46.4878C240.302 46.1778 239.808 45.7941 239.513 45.3366C239.232 44.8791 239.092 44.3109 239.092 43.632C239.092 42.5251 239.513 41.6323 240.354 40.9534C241.21 40.2597 242.457 39.9129 244.095 39.9129C245.158 39.9129 246.051 40.09 246.774 40.4442C247.497 40.7837 248.058 41.2559 248.456 41.861C248.869 42.4514 249.128 43.1302 249.231 43.8977L246.375 44.0305C246.301 43.632 246.169 43.2852 245.977 42.99C245.785 42.6949 245.527 42.4735 245.202 42.3259C244.877 42.1636 244.494 42.0824 244.051 42.0824C243.387 42.0824 242.885 42.2152 242.545 42.4809C242.206 42.7465 242.036 43.1007 242.036 43.5435C242.036 43.8534 242.11 44.1117 242.258 44.3183C242.42 44.5249 242.678 44.6946 243.032 44.8274C243.387 44.9455 243.859 45.0562 244.449 45.1595C245.689 45.3514 246.663 45.6023 247.371 45.9122C248.095 46.2074 248.604 46.5911 248.899 47.0633C249.209 47.5208 249.364 48.0743 249.364 48.7236C249.364 49.4763 249.15 50.1183 248.722 50.6496C248.309 51.1809 247.718 51.5868 246.951 51.8672C246.198 52.1328 245.313 52.2657 244.294 52.2657Z" fill="url(#paint20_linear_52_2189)"/>
<path d="M258.883 52.2657C257.879 52.2657 257.008 52.0148 256.271 51.513C255.547 51.0112 254.987 50.2954 254.588 49.3656C254.19 48.4359 253.99 47.3437 253.99 46.0893C253.99 44.8348 254.19 43.7427 254.588 42.8129C254.987 41.8832 255.555 41.1674 256.293 40.6656C257.031 40.1638 257.894 39.9129 258.883 39.9129C259.709 39.9129 260.432 40.0826 261.052 40.4221C261.687 40.7615 262.166 41.2412 262.491 41.861V36.2824H265.325V52H262.624L262.558 50.2511C262.233 50.8857 261.746 51.3801 261.097 51.7343C260.447 52.0885 259.709 52.2657 258.883 52.2657ZM259.746 49.9633C260.336 49.9633 260.831 49.8158 261.229 49.5206C261.643 49.2254 261.953 48.7901 262.159 48.2145C262.38 47.6242 262.491 46.9158 262.491 46.0893C262.491 45.2481 262.38 44.5397 262.159 43.9641C261.953 43.3885 261.643 42.9531 261.229 42.658C260.831 42.3628 260.336 42.2152 259.746 42.2152C258.89 42.2152 258.204 42.562 257.687 43.2557C257.186 43.9346 256.935 44.8791 256.935 46.0893C256.935 47.27 257.186 48.2145 257.687 48.9229C258.204 49.6165 258.89 49.9633 259.746 49.9633Z" fill="url(#paint21_linear_52_2189)"/>
<path d="M272.15 52.2657C270.97 52.2657 269.944 52.0148 269.073 51.513C268.203 50.9964 267.531 50.2733 267.059 49.3435C266.587 48.4137 266.35 47.329 266.35 46.0893C266.35 44.8496 266.587 43.7722 267.059 42.8572C267.531 41.9274 268.195 41.2043 269.051 40.6877C269.922 40.1712 270.933 39.9129 272.084 39.9129C273.206 39.9129 274.187 40.1638 275.028 40.6656C275.884 41.1674 276.541 41.8905 276.999 42.8351C277.456 43.7796 277.685 44.916 277.685 46.2443V46.8862H269.295C269.354 47.9193 269.634 48.7015 270.136 49.2328C270.652 49.7494 271.331 50.0076 272.173 50.0076C272.807 50.0076 273.331 49.8674 273.744 49.587C274.172 49.2918 274.467 48.886 274.63 48.3694L277.53 48.5466C277.205 49.6977 276.563 50.6053 275.604 51.2695C274.659 51.9336 273.508 52.2657 272.15 52.2657ZM269.295 44.9824H274.763C274.704 44.0231 274.431 43.3147 273.944 42.8572C273.457 42.3849 272.837 42.1488 272.084 42.1488C271.331 42.1488 270.704 42.3923 270.202 42.8793C269.715 43.3664 269.413 44.0674 269.295 44.9824Z" fill="url(#paint22_linear_52_2189)"/>
<path d="M287.738 52C286.558 52 285.687 51.727 285.126 51.1809C284.58 50.6349 284.307 49.7789 284.307 48.613V37.4114H287.141V48.3473C287.141 48.8934 287.259 49.2771 287.495 49.4985C287.731 49.7051 288.1 49.8084 288.602 49.8084H290.262V52H287.738ZM282.448 42.3702V40.1786H290.262V42.3702H282.448Z" fill="url(#paint23_linear_52_2189)"/>
<path d="M291.383 52V40.1786H294.04L294.15 43.4549L293.907 43.4106C294.084 42.2743 294.416 41.4552 294.903 40.9534C295.405 40.4368 296.084 40.1786 296.94 40.1786H298.024V42.6137H296.918C296.313 42.6137 295.811 42.7022 295.412 42.8793C295.014 43.0564 294.711 43.3369 294.505 43.7206C294.313 44.0895 294.217 44.5766 294.217 45.1816V52H291.383Z" fill="url(#paint24_linear_52_2189)"/>
<path d="M301.9 52.2657C300.66 52.2657 299.664 51.9852 298.911 51.4244C298.158 50.8488 297.782 50.0519 297.782 49.0336C297.782 48.0152 298.099 47.2183 298.734 46.6427C299.368 46.0671 300.335 45.6539 301.634 45.403L305.552 44.6282C305.552 43.787 305.36 43.1598 304.977 42.7465C304.593 42.3185 304.025 42.1045 303.272 42.1045C302.593 42.1045 302.055 42.2669 301.656 42.5916C301.272 42.9015 301.007 43.3516 300.859 43.9419L297.981 43.8091C298.217 42.5547 298.793 41.5954 299.708 40.9313C300.623 40.2524 301.811 39.9129 303.272 39.9129C304.955 39.9129 306.224 40.3409 307.08 41.1969C307.95 42.0381 308.386 43.2483 308.386 44.8274V49.1221C308.386 49.432 308.437 49.646 308.541 49.7641C308.659 49.8822 308.829 49.9412 309.05 49.9412H309.426V52C309.338 52.0295 309.19 52.0517 308.984 52.0664C308.792 52.0812 308.592 52.0886 308.386 52.0886C307.899 52.0886 307.463 52.0148 307.08 51.8672C306.696 51.7048 306.401 51.4318 306.194 51.0481C305.988 50.6496 305.884 50.1109 305.884 49.432L306.128 49.6091C306.01 50.1257 305.752 50.5906 305.353 51.0038C304.969 51.4023 304.482 51.7122 303.892 51.9336C303.302 52.155 302.637 52.2657 301.9 52.2657ZM302.475 50.2069C303.11 50.2069 303.656 50.0814 304.113 49.8305C304.571 49.5796 304.925 49.2328 305.176 48.7901C305.427 48.3473 305.552 47.8234 305.552 47.2183V46.5542L302.497 47.174C301.863 47.3069 301.405 47.5061 301.125 47.7717C300.859 48.0226 300.726 48.3547 300.726 48.7679C300.726 49.2254 300.874 49.5796 301.169 49.8305C301.479 50.0814 301.914 50.2069 302.475 50.2069ZM302.055 38.8503L303.405 35.7511H306.261L304.268 38.8503H302.055Z" fill="url(#paint25_linear_52_2189)"/>
<path d="M310.728 52V39.7137C310.728 38.6511 311.023 37.8172 311.613 37.2121C312.218 36.5923 313.141 36.2824 314.38 36.2824H316.683V38.474H314.912C314.454 38.474 314.115 38.5921 313.893 38.8282C313.687 39.0643 313.583 39.4111 313.583 39.8686V52H310.728ZM309.045 42.6801V40.4885H316.528V42.6801H309.045Z" fill="url(#paint26_linear_52_2189)"/>
<path d="M322.033 52.2657C320.852 52.2657 319.826 52.0148 318.955 51.513C318.085 50.9964 317.413 50.2733 316.941 49.3435C316.469 48.4137 316.233 47.329 316.233 46.0893C316.233 44.8496 316.469 43.7722 316.941 42.8572C317.413 41.9274 318.077 41.2043 318.933 40.6877C319.804 40.1712 320.815 39.9129 321.966 39.9129C323.088 39.9129 324.069 40.1638 324.91 40.6656C325.766 41.1674 326.423 41.8905 326.881 42.8351C327.338 43.7796 327.567 44.916 327.567 46.2443V46.8862H319.177C319.236 47.9193 319.516 48.7015 320.018 49.2328C320.535 49.7494 321.213 50.0076 322.055 50.0076C322.689 50.0076 323.213 49.8674 323.626 49.587C324.054 49.2918 324.35 48.886 324.512 48.3694L327.412 48.5466C327.087 49.6977 326.445 50.6053 325.486 51.2695C324.542 51.9336 323.39 52.2657 322.033 52.2657ZM319.177 44.9824H324.645C324.586 44.0231 324.313 43.3147 323.826 42.8572C323.339 42.3849 322.719 42.1488 321.966 42.1488C321.214 42.1488 320.586 42.3923 320.085 42.8793C319.597 43.3664 319.295 44.0674 319.177 44.9824Z" fill="url(#paint27_linear_52_2189)"/>
<path d="M333.656 55.5863C332.623 55.5863 331.737 55.4461 330.999 55.1657C330.262 54.8853 329.664 54.4868 329.206 53.9702C328.764 53.4685 328.454 52.8855 328.277 52.2214L331.199 52.0221C331.346 52.4649 331.597 52.8117 331.951 53.0626C332.32 53.3135 332.889 53.4389 333.656 53.4389C334.527 53.4389 335.198 53.2397 335.671 52.8412C336.143 52.4575 336.379 51.8524 336.379 51.026V49.5206C336.098 50.0962 335.648 50.5611 335.029 50.9153C334.409 51.2547 333.715 51.4244 332.948 51.4244C331.974 51.4244 331.103 51.1883 330.335 50.716C329.583 50.229 328.992 49.5575 328.564 48.7015C328.136 47.8308 327.922 46.8272 327.922 45.6908C327.922 44.5544 328.129 43.5582 328.542 42.7022C328.97 41.8315 329.561 41.1526 330.313 40.6656C331.066 40.1638 331.929 39.9129 332.903 39.9129C333.759 39.9129 334.497 40.1048 335.117 40.4885C335.737 40.8722 336.187 41.3814 336.467 42.016V40.1786H339.235V50.9595C339.235 51.9631 338.999 52.8117 338.526 53.5054C338.069 54.199 337.419 54.7155 336.578 55.055C335.752 55.4092 334.778 55.5863 333.656 55.5863ZM333.612 49.2107C334.453 49.2107 335.124 48.9007 335.626 48.2809C336.128 47.6463 336.386 46.7755 336.401 45.6687C336.416 44.9308 336.305 44.3035 336.069 43.787C335.848 43.2557 335.523 42.8498 335.095 42.5694C334.682 42.2743 334.187 42.1267 333.612 42.1267C332.741 42.1267 332.062 42.4514 331.575 43.1007C331.103 43.7353 330.867 44.5913 330.867 45.6687C330.867 46.746 331.11 47.6094 331.597 48.2588C332.099 48.8934 332.77 49.2107 333.612 49.2107Z" fill="url(#paint28_linear_52_2189)"/>
<path d="M346.083 52.2657C344.917 52.2657 343.891 52.0148 343.006 51.513C342.135 50.9964 341.456 50.2733 340.969 49.3435C340.497 48.4137 340.261 47.329 340.261 46.0893C340.261 44.8348 340.497 43.7501 340.969 42.8351C341.456 41.9053 342.135 41.1895 343.006 40.6877C343.891 40.1712 344.917 39.9129 346.083 39.9129C347.249 39.9129 348.267 40.1712 349.138 40.6877C350.009 41.1895 350.68 41.9053 351.152 42.8351C351.639 43.7501 351.883 44.8348 351.883 46.0893C351.883 47.329 351.639 48.4137 351.152 49.3435C350.68 50.2733 350.009 50.9964 349.138 51.513C348.267 52.0148 347.249 52.2657 346.083 52.2657ZM346.083 49.9633C346.998 49.9633 347.699 49.6239 348.186 48.945C348.688 48.2661 348.939 47.3142 348.939 46.0893C348.939 44.8791 348.688 43.9346 348.186 43.2557C347.699 42.562 346.998 42.2152 346.083 42.2152C345.168 42.2152 344.459 42.562 343.958 43.2557C343.456 43.9346 343.205 44.8791 343.205 46.0893C343.205 47.3142 343.456 48.2661 343.958 48.945C344.459 49.6239 345.168 49.9633 346.083 49.9633Z" fill="url(#paint29_linear_52_2189)"/>
<path d="M78.3544 66.3896C76.0679 66.3896 74.3333 64.655 74.3333 62.3684C74.3333 60.0819 76.0679 58.3473 78.3544 58.3473C80.6409 58.3473 82.3755 60.0819 82.3755 62.3684C82.3755 64.655 80.6409 66.3896 78.3544 66.3896ZM78.3544 65.7137C80.2354 65.7137 81.6659 64.272 81.6659 62.3684C81.6659 60.4649 80.2354 59.0231 78.3544 59.0231C76.4734 59.0231 75.0316 60.4649 75.0316 62.3684C75.0316 64.272 76.4734 65.7137 78.3544 65.7137ZM78.3769 64.6099C77.0929 64.6099 76.1242 63.6412 76.1242 62.3684C76.1242 61.0956 77.0929 60.127 78.3769 60.127C79.447 60.127 80.3143 60.8028 80.5395 61.7602H79.7398C79.5371 61.2308 79.0189 60.8816 78.3769 60.8816C77.5321 60.8816 76.9014 61.5349 76.9014 62.3684C76.9014 63.2019 77.5321 63.8552 78.3769 63.8552C79.0189 63.8552 79.5371 63.5061 79.7398 62.9767H80.5395C80.3143 63.9341 79.447 64.6099 78.3769 64.6099Z" fill="white"/>
<path d="M10.6441 30.6748L0 3.47311H6.82014L13.8768 22.5143L20.8941 3.47311H27.5959L16.9518 30.6748H10.6441Z" fill="white"/>
<path d="M29.9992 30.6748V3.47311H48.0548V9.22883H36.1097V14.1172H46.7538V19.873H36.1097V24.9191H48.2519V30.6748H29.9992Z" fill="white"/>
<path d="M51.8187 30.6748V3.47311H64.0792C69.4801 3.47311 73.5407 7.37596 73.5407 12.5798C73.5407 16.6009 71.057 19.7547 67.3513 20.898L68.6523 22.7903C69.6772 24.2489 71.057 24.9191 72.8311 24.9191H74.0137V30.6748H72.1609C67.8244 30.6748 64.7494 29.019 62.8965 25.6287L60.3735 21.371H57.9293V30.6748H51.8187ZM63.9609 9.22883H57.9293V16.049H63.9609C65.8532 16.049 67.2725 14.5903 67.2725 12.6586C67.2725 10.6875 65.8532 9.22883 63.9609 9.22883Z" fill="white"/>
<path d="M87.8684 31.1479C81.403 31.1479 76.5146 26.4171 76.5146 20.1095V3.47311H82.6252V20.0307C82.6252 23.0268 84.8328 25.2739 87.8684 25.2739C90.8645 25.2739 93.1116 23.0268 93.1116 20.0307V3.47311H99.2221V20.1095C99.2221 26.4171 94.2943 31.1479 87.8684 31.1479Z" fill="white"/>
<path d="M112.493 31.1479C106.54 31.1479 102.124 27.3633 102.124 22.5143H108.393C108.393 24.2883 110.245 25.7075 112.571 25.7075C114.661 25.7075 116.395 24.6037 116.395 23.0662C116.395 18.8086 102.558 20.6614 102.558 11.4365C102.558 6.31155 106.855 3.00003 112.335 3.00003C117.972 3.00003 122.269 6.54808 122.269 11.2788H116.001C116.001 9.66248 114.385 8.44037 112.295 8.44037C110.403 8.44037 108.826 9.38652 108.826 10.924C108.826 15.2211 122.664 12.8951 122.664 22.3566C122.664 27.6787 118.209 31.1479 112.493 31.1479Z" fill="white"/>
<path d="M11.3932 66.1479C5.44034 66.1479 1.02499 62.3633 1.02499 57.5143H7.29321C7.29321 59.2883 9.14608 60.7075 11.472 60.7075C13.5614 60.7075 15.296 59.6037 15.296 58.0662C15.296 53.8086 1.45864 55.6614 1.45864 46.4365C1.45864 41.3115 5.75572 38 11.2355 38C16.8729 38 21.17 41.5481 21.17 46.2788H14.9018C14.9018 44.6625 13.2855 43.4404 11.1961 43.4404C9.30377 43.4404 7.72686 44.3865 7.72686 45.924C7.72686 50.2211 21.5642 47.8951 21.5642 57.3566C21.5642 62.6787 17.1095 66.1479 11.3932 66.1479Z" fill="white"/>
<path d="M29.936 65.6748V44.2288H22.8005V38.4731H43.1821V44.2288H36.0466V65.6748H29.936Z" fill="white"/>
<path d="M46.3904 65.6748V38.4731H57.1134C65.0374 38.4731 70.9902 44.3077 70.9902 52.074C70.9902 59.8402 65.0374 65.6748 57.1134 65.6748H46.3904ZM56.9557 44.2288H52.5009V59.9191H56.9557C61.4105 59.9191 64.722 56.5287 64.722 52.074C64.722 47.6192 61.4105 44.2288 56.9557 44.2288Z" fill="white"/>
<defs>
<linearGradient id="paint0_linear_52_2189" x1="164.803" y1="33" x2="354.803" y2="33" gradientUnits="userSpaceOnUse">
<stop stop-color="#00FFC2"/>
<stop offset="1" stop-color="#C5FFF1"/>
</linearGradient>
<linearGradient id="paint1_linear_52_2189" x1="164.803" y1="33" x2="354.803" y2="33" gradientUnits="userSpaceOnUse">
<stop stop-color="#00FFC2"/>
<stop offset="1" stop-color="#C5FFF1"/>
</linearGradient>
<linearGradient id="paint2_linear_52_2189" x1="164.803" y1="33" x2="354.803" y2="33" gradientUnits="userSpaceOnUse">
<stop stop-color="#00FFC2"/>
<stop offset="1" stop-color="#C5FFF1"/>
</linearGradient>
<linearGradient id="paint3_linear_52_2189" x1="164.803" y1="33" x2="354.803" y2="33" gradientUnits="userSpaceOnUse">
<stop stop-color="#00FFC2"/>
<stop offset="1" stop-color="#C5FFF1"/>
</linearGradient>
<linearGradient id="paint4_linear_52_2189" x1="164.803" y1="33" x2="354.803" y2="33" gradientUnits="userSpaceOnUse">
<stop stop-color="#00FFC2"/>
<stop offset="1" stop-color="#C5FFF1"/>
</linearGradient>
<linearGradient id="paint5_linear_52_2189" x1="164.803" y1="33" x2="354.803" y2="33" gradientUnits="userSpaceOnUse">
<stop stop-color="#00FFC2"/>
<stop offset="1" stop-color="#C5FFF1"/>
</linearGradient>
<linearGradient id="paint6_linear_52_2189" x1="164.803" y1="33" x2="354.803" y2="33" gradientUnits="userSpaceOnUse">
<stop stop-color="#00FFC2"/>
<stop offset="1" stop-color="#C5FFF1"/>
</linearGradient>
<linearGradient id="paint7_linear_52_2189" x1="164.803" y1="33" x2="354.803" y2="33" gradientUnits="userSpaceOnUse">
<stop stop-color="#00FFC2"/>
<stop offset="1" stop-color="#C5FFF1"/>
</linearGradient>
<linearGradient id="paint8_linear_52_2189" x1="164.803" y1="33" x2="354.803" y2="33" gradientUnits="userSpaceOnUse">
<stop stop-color="#00FFC2"/>
<stop offset="1" stop-color="#C5FFF1"/>
</linearGradient>
<linearGradient id="paint9_linear_52_2189" x1="164.803" y1="33" x2="354.803" y2="33" gradientUnits="userSpaceOnUse">
<stop stop-color="#00FFC2"/>
<stop offset="1" stop-color="#C5FFF1"/>
</linearGradient>
<linearGradient id="paint10_linear_52_2189" x1="164.803" y1="33" x2="354.803" y2="33" gradientUnits="userSpaceOnUse">
<stop stop-color="#00FFC2"/>
<stop offset="1" stop-color="#C5FFF1"/>
</linearGradient>
<linearGradient id="paint11_linear_52_2189" x1="164.803" y1="33" x2="354.803" y2="33" gradientUnits="userSpaceOnUse">
<stop stop-color="#00FFC2"/>
<stop offset="1" stop-color="#C5FFF1"/>
</linearGradient>
<linearGradient id="paint12_linear_52_2189" x1="164.803" y1="33" x2="354.803" y2="33" gradientUnits="userSpaceOnUse">
<stop stop-color="#00FFC2"/>
<stop offset="1" stop-color="#C5FFF1"/>
</linearGradient>
<linearGradient id="paint13_linear_52_2189" x1="164.803" y1="33" x2="354.803" y2="33" gradientUnits="userSpaceOnUse">
<stop stop-color="#00FFC2"/>
<stop offset="1" stop-color="#C5FFF1"/>
</linearGradient>
<linearGradient id="paint14_linear_52_2189" x1="164.803" y1="33" x2="354.803" y2="33" gradientUnits="userSpaceOnUse">
<stop stop-color="#00FFC2"/>
<stop offset="1" stop-color="#C5FFF1"/>
</linearGradient>
<linearGradient id="paint15_linear_52_2189" x1="164.803" y1="33" x2="354.803" y2="33" gradientUnits="userSpaceOnUse">
<stop stop-color="#00FFC2"/>
<stop offset="1" stop-color="#C5FFF1"/>
</linearGradient>
<linearGradient id="paint16_linear_52_2189" x1="164.803" y1="33" x2="354.803" y2="33" gradientUnits="userSpaceOnUse">
<stop stop-color="#00FFC2"/>
<stop offset="1" stop-color="#C5FFF1"/>
</linearGradient>
<linearGradient id="paint17_linear_52_2189" x1="164.803" y1="33" x2="354.803" y2="33" gradientUnits="userSpaceOnUse">
<stop stop-color="#00FFC2"/>
<stop offset="1" stop-color="#C5FFF1"/>
</linearGradient>
<linearGradient id="paint18_linear_52_2189" x1="164.803" y1="33" x2="354.803" y2="33" gradientUnits="userSpaceOnUse">
<stop stop-color="#00FFC2"/>
<stop offset="1" stop-color="#C5FFF1"/>
</linearGradient>
<linearGradient id="paint19_linear_52_2189" x1="164.803" y1="33" x2="354.803" y2="33" gradientUnits="userSpaceOnUse">
<stop stop-color="#00FFC2"/>
<stop offset="1" stop-color="#C5FFF1"/>
</linearGradient>
<linearGradient id="paint20_linear_52_2189" x1="164.803" y1="33" x2="354.803" y2="33" gradientUnits="userSpaceOnUse">
<stop stop-color="#00FFC2"/>
<stop offset="1" stop-color="#C5FFF1"/>
</linearGradient>
<linearGradient id="paint21_linear_52_2189" x1="164.803" y1="33" x2="354.803" y2="33" gradientUnits="userSpaceOnUse">
<stop stop-color="#00FFC2"/>
<stop offset="1" stop-color="#C5FFF1"/>
</linearGradient>
<linearGradient id="paint22_linear_52_2189" x1="164.803" y1="33" x2="354.803" y2="33" gradientUnits="userSpaceOnUse">
<stop stop-color="#00FFC2"/>
<stop offset="1" stop-color="#C5FFF1"/>
</linearGradient>
<linearGradient id="paint23_linear_52_2189" x1="164.803" y1="33" x2="354.803" y2="33" gradientUnits="userSpaceOnUse">
<stop stop-color="#00FFC2"/>
<stop offset="1" stop-color="#C5FFF1"/>
</linearGradient>
<linearGradient id="paint24_linear_52_2189" x1="164.803" y1="33" x2="354.803" y2="33" gradientUnits="userSpaceOnUse">
<stop stop-color="#00FFC2"/>
<stop offset="1" stop-color="#C5FFF1"/>
</linearGradient>
<linearGradient id="paint25_linear_52_2189" x1="164.803" y1="33" x2="354.803" y2="33" gradientUnits="userSpaceOnUse">
<stop stop-color="#00FFC2"/>
<stop offset="1" stop-color="#C5FFF1"/>
</linearGradient>
<linearGradient id="paint26_linear_52_2189" x1="164.803" y1="33" x2="354.803" y2="33" gradientUnits="userSpaceOnUse">
<stop stop-color="#00FFC2"/>
<stop offset="1" stop-color="#C5FFF1"/>
</linearGradient>
<linearGradient id="paint27_linear_52_2189" x1="164.803" y1="33" x2="354.803" y2="33" gradientUnits="userSpaceOnUse">
<stop stop-color="#00FFC2"/>
<stop offset="1" stop-color="#C5FFF1"/>
</linearGradient>
<linearGradient id="paint28_linear_52_2189" x1="164.803" y1="33" x2="354.803" y2="33" gradientUnits="userSpaceOnUse">
<stop stop-color="#00FFC2"/>
<stop offset="1" stop-color="#C5FFF1"/>
</linearGradient>
<linearGradient id="paint29_linear_52_2189" x1="164.803" y1="33" x2="354.803" y2="33" gradientUnits="userSpaceOnUse">
<stop stop-color="#00FFC2"/>
<stop offset="1" stop-color="#C5FFF1"/>
</linearGradient>
</defs>
</svg>
