<svg width="186" height="43" viewBox="0 0 186 43" fill="none" xmlns="http://www.w3.org/2000/svg">
<rect width="182" height="27" transform="matrix(-1 0 0 1 184 9)" fill="#012129"/>
<path d="M33.6667 15.3335L27 23.3335H33L32.3333 28.6668L39 20.6668H33L33.6667 15.3335Z" stroke="#00FFC2" stroke-width="1.2" stroke-linecap="round" stroke-linejoin="round"/>
<path d="M50.1266 26V16.699H56.1788V17.9959H51.5414V20.7076H56.0216V21.9652H51.5414V24.7031H56.2836V26H50.1266ZM57.9653 26V19.0308H59.236L59.2884 20.891L59.1181 20.7993C59.1967 20.3452 59.3452 19.9784 59.5635 19.6989C59.7818 19.4194 60.0482 19.2142 60.3626 19.0832C60.677 18.9435 61.0176 18.8736 61.3844 18.8736C61.9084 18.8736 62.3407 18.9915 62.6813 19.2273C63.0306 19.4544 63.2926 19.7688 63.4673 20.1705C63.6507 20.5635 63.7424 21.0133 63.7424 21.5198V26H62.3538V21.939C62.3538 21.5285 62.3101 21.1836 62.2228 20.9041C62.1355 20.6246 61.9914 20.4107 61.7905 20.2622C61.5896 20.1137 61.3276 20.0395 61.0045 20.0395C60.5154 20.0395 60.1181 20.2011 59.8124 20.5242C59.5067 20.8473 59.3539 21.3189 59.3539 21.939V26H57.9653ZM67.8785 26C67.2148 26 66.7257 25.8472 66.4113 25.5415C66.0969 25.2358 65.9397 24.7599 65.9397 24.1136V17.3933H67.3283V24.0088C67.3283 24.3319 67.3982 24.5546 67.5379 24.6769C67.6777 24.7992 67.8916 24.8603 68.1798 24.8603H69.1754V26H67.8785ZM64.8786 20.1705V19.0308H69.1754V20.1705H64.8786ZM70.6431 26V19.0308H71.9138L71.9662 20.8779L71.8483 20.8386C71.9444 20.2098 72.1365 19.7513 72.4247 19.4631C72.7217 19.1749 73.119 19.0308 73.6168 19.0308H74.2849V20.2753H73.6168C73.2675 20.2753 72.9749 20.3321 72.7391 20.4456C72.5033 20.5591 72.3243 20.7338 72.202 20.9696C72.0885 21.2054 72.0317 21.5111 72.0317 21.8866V26H70.6431ZM78.1431 26.1572C77.4619 26.1572 76.8724 26.0087 76.3746 25.7118C75.8855 25.4149 75.5056 24.9913 75.2349 24.4411C74.9729 23.8909 74.8419 23.249 74.8419 22.5154C74.8419 21.7818 74.9729 21.1443 75.2349 20.6028C75.5056 20.0526 75.8855 19.629 76.3746 19.3321C76.8637 19.0264 77.4401 18.8736 78.1038 18.8736C78.7326 18.8736 79.2872 19.0221 79.7675 19.319C80.2478 19.6072 80.619 20.0264 80.881 20.5766C81.1517 21.1268 81.2871 21.7905 81.2871 22.5678V22.9215H76.2829C76.3178 23.6027 76.4969 24.1136 76.82 24.4542C77.1519 24.7948 77.5973 24.9651 78.1562 24.9651C78.5667 24.9651 78.9073 24.869 79.178 24.6769C79.4487 24.4848 79.6365 24.2271 79.7413 23.904L81.1823 23.9957C80.9989 24.642 80.6365 25.166 80.095 25.5677C79.5623 25.9607 78.9116 26.1572 78.1431 26.1572ZM76.2829 21.8735H79.8199C79.7762 21.2534 79.5972 20.7949 79.2828 20.498C78.9771 20.2011 78.5841 20.0526 78.1038 20.0526C77.606 20.0526 77.1955 20.2098 76.8724 20.5242C76.558 20.8299 76.3615 21.2796 76.2829 21.8735ZM85.4975 28.1222C84.9473 28.1222 84.4626 28.0392 84.0434 27.8733C83.6242 27.7074 83.2793 27.4716 83.0085 27.1659C82.7378 26.869 82.5544 26.5196 82.4583 26.1179L83.8993 26.0262C83.9954 26.3144 84.1613 26.5415 84.3971 26.7074C84.6417 26.8821 85.0085 26.9694 85.4975 26.9694C86.0739 26.9694 86.515 26.8471 86.8206 26.6026C87.135 26.3581 87.2922 25.9869 87.2922 25.4891V24.4804C87.1263 24.8385 86.8599 25.1223 86.4931 25.3319C86.1263 25.5415 85.7159 25.6463 85.2617 25.6463C84.6766 25.6463 84.157 25.5022 83.7028 25.214C83.2487 24.9258 82.895 24.5284 82.6417 24.0219C82.3885 23.5154 82.2618 22.9302 82.2618 22.2665C82.2618 21.594 82.3841 21.0045 82.6286 20.498C82.8819 19.9915 83.2312 19.5941 83.6766 19.3059C84.1308 19.0177 84.6417 18.8736 85.2093 18.8736C85.7071 18.8736 86.1438 18.9871 86.5193 19.2142C86.9036 19.4413 87.1787 19.7469 87.3446 20.1312V19.0308H88.6808V25.4498C88.6808 26.0262 88.5498 26.5109 88.2878 26.9039C88.0346 27.3056 87.6678 27.6069 87.1874 27.8078C86.7158 28.0174 86.1525 28.1222 85.4975 28.1222ZM85.4844 24.4673C86.0259 24.4673 86.4582 24.2708 86.7813 23.8778C87.1132 23.4848 87.2835 22.9433 87.2922 22.2534C87.301 21.7993 87.2311 21.4106 87.0826 21.0875C86.9342 20.7556 86.7202 20.5024 86.4407 20.3277C86.17 20.1443 85.8512 20.0526 85.4844 20.0526C84.9168 20.0526 84.4757 20.2535 84.1613 20.6552C83.8557 21.0482 83.7028 21.5809 83.7028 22.2534C83.7028 22.9346 83.86 23.4761 84.1744 23.8778C84.4976 24.2708 84.9342 24.4673 85.4844 24.4673ZM92.6033 26.1572C91.8784 26.1572 91.2976 25.9913 90.861 25.6594C90.433 25.3275 90.2191 24.8603 90.2191 24.2577C90.2191 23.6551 90.3981 23.1879 90.7562 22.856C91.123 22.5154 91.6863 22.2709 92.4461 22.1224L94.8434 21.6639C94.8434 21.1224 94.7167 20.7207 94.4635 20.4587C94.2102 20.188 93.8347 20.0526 93.3369 20.0526C92.8915 20.0526 92.5421 20.153 92.2889 20.3539C92.0356 20.546 91.8609 20.8342 91.7649 21.2185L90.337 21.1268C90.4679 20.4281 90.7911 19.8779 91.3063 19.4762C91.8304 19.0745 92.5072 18.8736 93.3369 18.8736C94.2801 18.8736 94.9962 19.1269 95.4853 19.6334C95.9831 20.1312 96.232 20.8342 96.232 21.7425V24.4542C96.232 24.6201 96.2582 24.738 96.3106 24.8079C96.3717 24.869 96.4678 24.8996 96.5988 24.8996H96.8477V26C96.804 26.0087 96.7341 26.0175 96.6381 26.0262C96.542 26.0349 96.4416 26.0393 96.3368 26.0393C96.0398 26.0393 95.7822 25.9913 95.5639 25.8952C95.3543 25.7991 95.1971 25.6419 95.0923 25.4236C94.9875 25.1965 94.9351 24.8952 94.9351 24.5197L95.0792 24.5852C95.0093 24.8909 94.8565 25.1616 94.6207 25.3974C94.3936 25.6332 94.101 25.821 93.743 25.9607C93.3936 26.0917 93.0137 26.1572 92.6033 26.1572ZM92.826 25.0568C93.2452 25.0568 93.6032 24.9782 93.9002 24.821C94.1971 24.6551 94.4285 24.428 94.5945 24.1398C94.7604 23.8516 94.8434 23.5241 94.8434 23.1573V22.7119L92.7998 23.1049C92.3806 23.1835 92.0836 23.3101 91.909 23.4848C91.743 23.6507 91.6601 23.8647 91.6601 24.1267C91.6601 24.4236 91.7605 24.6551 91.9614 24.821C92.171 24.9782 92.4592 25.0568 92.826 25.0568ZM104.113 26.1572C103.432 26.1572 102.842 26.0087 102.344 25.7118C101.855 25.4149 101.475 24.9913 101.205 24.4411C100.943 23.8909 100.812 23.249 100.812 22.5154C100.812 21.7818 100.943 21.1443 101.205 20.6028C101.475 20.0526 101.855 19.629 102.344 19.3321C102.833 19.0264 103.41 18.8736 104.074 18.8736C104.702 18.8736 105.257 19.0221 105.737 19.319C106.218 19.6072 106.589 20.0264 106.851 20.5766C107.121 21.1268 107.257 21.7905 107.257 22.5678V22.9215H102.253C102.288 23.6027 102.467 24.1136 102.79 24.4542C103.122 24.7948 103.567 24.9651 104.126 24.9651C104.536 24.9651 104.877 24.869 105.148 24.6769C105.418 24.4848 105.606 24.2271 105.711 23.904L107.152 23.9957C106.969 24.642 106.606 25.166 106.065 25.5677C105.532 25.9607 104.881 26.1572 104.113 26.1572ZM102.253 21.8735H105.79C105.746 21.2534 105.567 20.7949 105.253 20.498C104.947 20.2011 104.554 20.0526 104.074 20.0526C103.576 20.0526 103.165 20.2098 102.842 20.5242C102.528 20.8299 102.331 21.2796 102.253 21.8735ZM108.664 26V19.0308H109.935L109.974 20.76L109.817 20.7076C109.895 20.3233 110.031 19.9958 110.223 19.7251C110.424 19.4544 110.668 19.2448 110.956 19.0963C111.245 18.9478 111.559 18.8736 111.9 18.8736C112.493 18.8736 112.978 19.0439 113.354 19.3845C113.729 19.7164 113.965 20.1749 114.061 20.76H113.838C113.917 20.3495 114.048 20.0089 114.231 19.7382C114.423 19.4587 114.668 19.2448 114.965 19.0963C115.262 18.9478 115.598 18.8736 115.974 18.8736C116.463 18.8736 116.878 18.9784 117.218 19.188C117.567 19.3889 117.829 19.6858 118.004 20.0788C118.188 20.4718 118.279 20.9521 118.279 21.5198V26H116.891V21.8604C116.891 21.2578 116.781 20.8037 116.563 20.498C116.345 20.1923 116.013 20.0395 115.568 20.0395C115.279 20.0395 115.026 20.1137 114.808 20.2622C114.589 20.4107 114.419 20.6246 114.297 20.9041C114.183 21.1836 114.127 21.5198 114.127 21.9128V26H112.803V21.9128C112.803 21.3189 112.703 20.8604 112.502 20.5373C112.31 20.2054 111.978 20.0395 111.507 20.0395C111.21 20.0395 110.952 20.1137 110.734 20.2622C110.524 20.4107 110.358 20.629 110.236 20.9172C110.114 21.1967 110.052 21.5285 110.052 21.9128V26H108.664ZM127.514 26V24.0612H122.824V22.856L127.344 16.699H128.929V22.7774H130.068V24.0612H128.929V26H127.514ZM124.435 22.7774H127.514V18.664L124.435 22.7774ZM137.34 26.1572C136.746 26.1572 136.226 26.0087 135.781 25.7118C135.344 25.4149 135.008 24.9957 134.772 24.4542C134.545 23.904 134.432 23.2577 134.432 22.5154C134.432 21.7731 134.549 21.1312 134.785 20.5897C135.021 20.0395 135.357 19.6159 135.794 19.319C136.231 19.0221 136.746 18.8736 137.34 18.8736C137.82 18.8736 138.248 18.974 138.624 19.1749C138.999 19.3758 139.283 19.6552 139.475 20.0133V16.699H140.864V26H139.567L139.527 24.952C139.335 25.3275 139.043 25.6245 138.65 25.8428C138.265 26.0524 137.829 26.1572 137.34 26.1572ZM137.707 24.952C138.082 24.952 138.401 24.8559 138.663 24.6638C138.925 24.4717 139.126 24.1922 139.265 23.8254C139.405 23.4586 139.475 23.0219 139.475 22.5154C139.475 21.9914 139.405 21.5504 139.265 21.1923C139.126 20.8255 138.925 20.5504 138.663 20.367C138.401 20.1749 138.082 20.0788 137.707 20.0788C137.148 20.0788 136.702 20.2971 136.37 20.7338C136.038 21.1617 135.873 21.7556 135.873 22.5154C135.873 23.2665 136.038 23.8603 136.37 24.297C136.702 24.7337 137.148 24.952 137.707 24.952ZM142.604 26V19.0308H143.992V26H142.604ZM142.577 18.0221V16.6335H144.018V18.0221H142.577ZM147.779 26.1572C147.054 26.1572 146.474 25.9913 146.037 25.6594C145.609 25.3275 145.395 24.8603 145.395 24.2577C145.395 23.6551 145.574 23.1879 145.932 22.856C146.299 22.5154 146.862 22.2709 147.622 22.1224L150.019 21.6639C150.019 21.1224 149.893 20.7207 149.64 20.4587C149.386 20.188 149.011 20.0526 148.513 20.0526C148.068 20.0526 147.718 20.153 147.465 20.3539C147.212 20.546 147.037 20.8342 146.941 21.2185L145.513 21.1268C145.644 20.4281 145.967 19.8779 146.482 19.4762C147.006 19.0745 147.683 18.8736 148.513 18.8736C149.456 18.8736 150.172 19.1269 150.661 19.6334C151.159 20.1312 151.408 20.8342 151.408 21.7425V24.4542C151.408 24.6201 151.434 24.738 151.487 24.8079C151.548 24.869 151.644 24.8996 151.775 24.8996H152.024V26C151.98 26.0087 151.91 26.0175 151.814 26.0262C151.718 26.0349 151.618 26.0393 151.513 26.0393C151.216 26.0393 150.958 25.9913 150.74 25.8952C150.53 25.7991 150.373 25.6419 150.268 25.4236C150.164 25.1965 150.111 24.8952 150.111 24.5197L150.255 24.5852C150.185 24.8909 150.033 25.1616 149.797 25.3974C149.57 25.6332 149.277 25.821 148.919 25.9607C148.57 26.0917 148.19 26.1572 147.779 26.1572ZM148.002 25.0568C148.421 25.0568 148.779 24.9782 149.076 24.821C149.373 24.6551 149.605 24.428 149.771 24.1398C149.936 23.8516 150.019 23.5241 150.019 23.1573V22.7119L147.976 23.1049C147.557 23.1835 147.26 23.3101 147.085 23.4848C146.919 23.6507 146.836 23.8647 146.836 24.1267C146.836 24.4236 146.937 24.6551 147.137 24.821C147.347 24.9782 147.635 25.0568 148.002 25.0568ZM155.831 26.1572C155.176 26.1572 154.621 26.0568 154.167 25.8559C153.721 25.655 153.376 25.3799 153.132 25.0306C152.887 24.6725 152.748 24.2621 152.713 23.7992L154.141 23.7337C154.21 24.118 154.376 24.4236 154.638 24.6507C154.9 24.8778 155.298 24.9913 155.831 24.9913C156.267 24.9913 156.612 24.9214 156.865 24.7817C157.119 24.642 157.245 24.4193 157.245 24.1136C157.245 23.9477 157.202 23.8079 157.114 23.6944C157.036 23.5721 156.879 23.4717 156.643 23.3931C156.407 23.3058 156.058 23.2228 155.595 23.1442C154.905 23.0132 154.363 22.8604 153.97 22.6857C153.577 22.511 153.298 22.2883 153.132 22.0176C152.966 21.7469 152.883 21.4194 152.883 21.0351C152.883 20.3976 153.119 19.8779 153.59 19.4762C154.071 19.0745 154.761 18.8736 155.66 18.8736C156.263 18.8736 156.769 18.9784 157.18 19.188C157.59 19.3889 157.909 19.664 158.136 20.0133C158.372 20.3539 158.52 20.7382 158.582 21.1661L157.154 21.2447C157.11 21.0002 157.023 20.7906 156.892 20.6159C156.769 20.4325 156.603 20.2928 156.394 20.1967C156.184 20.0919 155.935 20.0395 155.647 20.0395C155.202 20.0395 154.87 20.1268 154.652 20.3015C154.433 20.4762 154.324 20.7032 154.324 20.9827C154.324 21.1923 154.372 21.3626 154.468 21.4936C154.573 21.6246 154.739 21.7338 154.966 21.8211C155.193 21.8997 155.494 21.9696 155.87 22.0307C156.595 22.153 157.162 22.3058 157.573 22.4892C157.983 22.6639 158.271 22.8822 158.437 23.1442C158.603 23.4062 158.686 23.725 158.686 24.1005C158.686 24.5372 158.564 24.9083 158.32 25.214C158.075 25.5197 157.739 25.7555 157.311 25.9214C156.883 26.0786 156.389 26.1572 155.831 26.1572Z" fill="white"/>
<rect x="5" y="5" width="5" height="5" rx="2.5" transform="rotate(180 5 5)" fill="#00FFC2"/>
<rect x="3" y="39" width="1" height="36" transform="rotate(180 3 39)" fill="#00FFC2"/>
<rect width="1" height="35" transform="matrix(-1 0 0 1 184 6)" fill="#00FFC2"/>
<rect width="5" height="5" rx="2.5" transform="matrix(-1 0 0 1 186 38)" fill="#00FFC2"/>
</svg>
