<svg width="186" height="43" viewBox="0 0 186 43" fill="none" xmlns="http://www.w3.org/2000/svg">
<rect width="182" height="27" transform="matrix(-1 0 0 1 184 9)" fill="#012129"/>
<path d="M27.1266 26V16.699H33.1657V17.9959H27.7947L28.5414 17.223V21.4936L27.7947 20.8255H32.9299V22.0831H27.7947L28.5414 21.415V26H27.1266ZM37.2713 26.1572C36.6076 26.1572 36.0268 26.0087 35.529 25.7118C35.0312 25.4149 34.647 24.9913 34.3762 24.4411C34.1055 23.8909 33.9701 23.249 33.9701 22.5154C33.9701 21.7731 34.1055 21.1312 34.3762 20.5897C34.647 20.0482 35.0312 19.629 35.529 19.3321C36.0268 19.0264 36.6076 18.8736 37.2713 18.8736C37.9351 18.8736 38.5158 19.0264 39.0136 19.3321C39.5114 19.629 39.8957 20.0482 40.1664 20.5897C40.4372 21.1312 40.5725 21.7731 40.5725 22.5154C40.5725 23.249 40.4372 23.8909 40.1664 24.4411C39.8957 24.9913 39.5114 25.4149 39.0136 25.7118C38.5158 26.0087 37.9351 26.1572 37.2713 26.1572ZM37.2713 24.952C37.8652 24.952 38.3237 24.738 38.6468 24.3101C38.97 23.8734 39.1315 23.2752 39.1315 22.5154C39.1315 21.7556 38.97 21.1617 38.6468 20.7338C38.3237 20.2971 37.8652 20.0788 37.2713 20.0788C36.6862 20.0788 36.2277 20.2971 35.8958 20.7338C35.5727 21.1617 35.4111 21.7556 35.4111 22.5154C35.4111 23.2752 35.5727 23.8734 35.8958 24.3101C36.2277 24.738 36.6862 24.952 37.2713 24.952ZM44.8448 26.1572C44.181 26.1572 43.6003 26.0087 43.1025 25.7118C42.6047 25.4149 42.2204 24.9913 41.9497 24.4411C41.6789 23.8909 41.5436 23.249 41.5436 22.5154C41.5436 21.7818 41.6789 21.1443 41.9497 20.6028C42.2204 20.0526 42.6047 19.629 43.1025 19.3321C43.6003 19.0264 44.181 18.8736 44.8448 18.8736C45.4124 18.8736 45.9146 18.974 46.3513 19.1749C46.7967 19.367 47.1547 19.6509 47.4255 20.0264C47.7049 20.4019 47.884 20.8604 47.9626 21.4019L46.5085 21.4805C46.4386 21.0264 46.2552 20.6814 45.9583 20.4456C45.6613 20.2011 45.2902 20.0788 44.8448 20.0788C44.2596 20.0788 43.8011 20.2971 43.4693 20.7338C43.1461 21.1617 42.9846 21.7556 42.9846 22.5154C42.9846 23.2752 43.1461 23.8734 43.4693 24.3101C43.8011 24.738 44.2596 24.952 44.8448 24.952C45.2902 24.952 45.6613 24.8297 45.9583 24.5852C46.2552 24.3319 46.4386 23.952 46.5085 23.4455L47.9626 23.5241C47.884 24.0568 47.7049 24.5197 47.4255 24.9127C47.1547 25.3057 46.7967 25.6114 46.3513 25.8297C45.9146 26.048 45.4124 26.1572 44.8448 26.1572ZM52.0984 26.1572C51.4346 26.1572 50.8539 26.0087 50.3561 25.7118C49.8583 25.4149 49.474 24.9913 49.2033 24.4411C48.9325 23.8909 48.7972 23.249 48.7972 22.5154C48.7972 21.7731 48.9325 21.1312 49.2033 20.5897C49.474 20.0482 49.8583 19.629 50.3561 19.3321C50.8539 19.0264 51.4346 18.8736 52.0984 18.8736C52.7621 18.8736 53.3429 19.0264 53.8407 19.3321C54.3385 19.629 54.7227 20.0482 54.9935 20.5897C55.2642 21.1312 55.3996 21.7731 55.3996 22.5154C55.3996 23.249 55.2642 23.8909 54.9935 24.4411C54.7227 24.9913 54.3385 25.4149 53.8407 25.7118C53.3429 26.0087 52.7621 26.1572 52.0984 26.1572ZM52.0984 24.952C52.6922 24.952 53.1507 24.738 53.4739 24.3101C53.797 23.8734 53.9586 23.2752 53.9586 22.5154C53.9586 21.7556 53.797 21.1617 53.4739 20.7338C53.1507 20.2971 52.6922 20.0788 52.0984 20.0788C51.5132 20.0788 51.0547 20.2971 50.7229 20.7338C50.3997 21.1617 50.2382 21.7556 50.2382 22.5154C50.2382 23.2752 50.3997 23.8734 50.7229 24.3101C51.0547 24.738 51.5132 24.952 52.0984 24.952ZM62.9852 26.1572C62.304 26.1572 61.7145 26.0087 61.2167 25.7118C60.7276 25.4149 60.3477 24.9913 60.077 24.4411C59.815 23.8909 59.684 23.249 59.684 22.5154C59.684 21.7818 59.815 21.1443 60.077 20.6028C60.3477 20.0526 60.7276 19.629 61.2167 19.3321C61.7058 19.0264 62.2822 18.8736 62.9459 18.8736C63.5747 18.8736 64.1293 19.0221 64.6096 19.319C65.0899 19.6072 65.4611 20.0264 65.7231 20.5766C65.9938 21.1268 66.1292 21.7905 66.1292 22.5678V22.9215H61.125C61.1599 23.6027 61.339 24.1136 61.6621 24.4542C61.994 24.7948 62.4394 24.9651 62.9983 24.9651C63.4088 24.9651 63.7494 24.869 64.0201 24.6769C64.2908 24.4848 64.4786 24.2271 64.5834 23.904L66.0244 23.9957C65.841 24.642 65.4786 25.166 64.9371 25.5677C64.4044 25.9607 63.7537 26.1572 62.9852 26.1572ZM61.125 21.8735H64.662C64.6183 21.2534 64.4393 20.7949 64.1249 20.498C63.8192 20.2011 63.4262 20.0526 62.9459 20.0526C62.4481 20.0526 62.0376 20.2098 61.7145 20.5242C61.4001 20.8299 61.2036 21.2796 61.125 21.8735ZM67.5362 26V19.0308H68.8069L68.8462 20.76L68.689 20.7076C68.7676 20.3233 68.903 19.9958 69.0951 19.7251C69.296 19.4544 69.5405 19.2448 69.8287 19.0963C70.1169 18.9478 70.4313 18.8736 70.7719 18.8736C71.3658 18.8736 71.8505 19.0439 72.226 19.3845C72.6015 19.7164 72.8373 20.1749 72.9334 20.76H72.7107C72.7893 20.3495 72.9203 20.0089 73.1037 19.7382C73.2958 19.4587 73.5404 19.2448 73.8373 19.0963C74.1342 18.9478 74.4705 18.8736 74.846 18.8736C75.3351 18.8736 75.7499 18.9784 76.0905 19.188C76.4398 19.3889 76.7018 19.6858 76.8765 20.0788C77.0599 20.4718 77.1516 20.9521 77.1516 21.5198V26H75.763V21.8604C75.763 21.2578 75.6538 20.8037 75.4355 20.498C75.2172 20.1923 74.8853 20.0395 74.4399 20.0395C74.1517 20.0395 73.8984 20.1137 73.6801 20.2622C73.4618 20.4107 73.2915 20.6246 73.1692 20.9041C73.0557 21.1836 72.9989 21.5198 72.9989 21.9128V26H71.6758V21.9128C71.6758 21.3189 71.5754 20.8604 71.3745 20.5373C71.1824 20.2054 70.8505 20.0395 70.3789 20.0395C70.082 20.0395 69.8243 20.1137 69.606 20.2622C69.3964 20.4107 69.2305 20.629 69.1082 20.9172C68.9859 21.1967 68.9248 21.5285 68.9248 21.9128V26H67.5362ZM82.4562 26V16.699H85.9277C86.9932 16.699 87.8228 16.9566 88.4167 17.4719C89.0106 17.9784 89.3075 18.6858 89.3075 19.5941C89.3075 20.1967 89.1721 20.7207 88.9014 21.1661C88.6307 21.6028 88.242 21.939 87.7355 22.1748C87.2377 22.4019 86.6351 22.5154 85.9277 22.5154H83.871V26H82.4562ZM83.871 21.2316H85.8884C86.5259 21.2316 87.0106 21.0962 87.3425 20.8255C87.6744 20.546 87.8403 20.1356 87.8403 19.5941C87.8403 19.0614 87.6744 18.664 87.3425 18.402C87.0106 18.1313 86.5259 17.9959 85.8884 17.9959H83.871V21.2316ZM93.4197 26.1572C92.7385 26.1572 92.149 26.0087 91.6512 25.7118C91.1621 25.4149 90.7822 24.9913 90.5115 24.4411C90.2495 23.8909 90.1185 23.249 90.1185 22.5154C90.1185 21.7818 90.2495 21.1443 90.5115 20.6028C90.7822 20.0526 91.1621 19.629 91.6512 19.3321C92.1402 19.0264 92.7166 18.8736 93.3804 18.8736C94.0092 18.8736 94.5637 19.0221 95.0441 19.319C95.5244 19.6072 95.8956 20.0264 96.1576 20.5766C96.4283 21.1268 96.5637 21.7905 96.5637 22.5678V22.9215H91.5595C91.5944 23.6027 91.7734 24.1136 92.0966 24.4542C92.4284 24.7948 92.8738 24.9651 93.4328 24.9651C93.8432 24.9651 94.1838 24.869 94.4546 24.6769C94.7253 24.4848 94.9131 24.2271 95.0179 23.904L96.4589 23.9957C96.2755 24.642 95.913 25.166 95.3716 25.5677C94.8388 25.9607 94.1882 26.1572 93.4197 26.1572ZM91.5595 21.8735H95.0965C95.0528 21.2534 94.8738 20.7949 94.5594 20.498C94.2537 20.2011 93.8607 20.0526 93.3804 20.0526C92.8826 20.0526 92.4721 20.2098 92.149 20.5242C91.8346 20.8299 91.6381 21.2796 91.5595 21.8735ZM97.9707 26V19.0308H99.2414L99.2938 20.8779L99.1759 20.8386C99.2719 20.2098 99.4641 19.7513 99.7523 19.4631C100.049 19.1749 100.447 19.0308 100.944 19.0308H101.612V20.2753H100.944C100.595 20.2753 100.302 20.3321 100.067 20.4456C99.8309 20.5591 99.6518 20.7338 99.5296 20.9696C99.416 21.2054 99.3593 21.5111 99.3593 21.8866V26H97.9707ZM103.258 26V18.5854C103.258 18.009 103.42 17.5505 103.743 17.2099C104.066 16.8693 104.572 16.699 105.262 16.699H106.494V17.8387H105.446C105.175 17.8387 104.974 17.9129 104.843 18.0614C104.712 18.2011 104.647 18.402 104.647 18.664V26H103.258ZM102.289 20.2491V19.1225H106.389V20.2491H102.289ZM110.268 26.1572C109.604 26.1572 109.024 26.0087 108.526 25.7118C108.028 25.4149 107.644 24.9913 107.373 24.4411C107.102 23.8909 106.967 23.249 106.967 22.5154C106.967 21.7731 107.102 21.1312 107.373 20.5897C107.644 20.0482 108.028 19.629 108.526 19.3321C109.024 19.0264 109.604 18.8736 110.268 18.8736C110.932 18.8736 111.513 19.0264 112.01 19.3321C112.508 19.629 112.892 20.0482 113.163 20.5897C113.434 21.1312 113.569 21.7731 113.569 22.5154C113.569 23.249 113.434 23.8909 113.163 24.4411C112.892 24.9913 112.508 25.4149 112.01 25.7118C111.513 26.0087 110.932 26.1572 110.268 26.1572ZM110.268 24.952C110.862 24.952 111.32 24.738 111.644 24.3101C111.967 23.8734 112.128 23.2752 112.128 22.5154C112.128 21.7556 111.967 21.1617 111.644 20.7338C111.32 20.2971 110.862 20.0788 110.268 20.0788C109.683 20.0788 109.224 20.2971 108.893 20.7338C108.569 21.1617 108.408 21.7556 108.408 22.5154C108.408 23.2752 108.569 23.8734 108.893 24.3101C109.224 24.738 109.683 24.952 110.268 24.952ZM114.973 26V19.0308H116.243L116.296 20.8779L116.178 20.8386C116.274 20.2098 116.466 19.7513 116.754 19.4631C117.051 19.1749 117.448 19.0308 117.946 19.0308H118.614V20.2753H117.946C117.597 20.2753 117.304 20.3321 117.069 20.4456C116.833 20.5591 116.654 20.7338 116.531 20.9696C116.418 21.2054 116.361 21.5111 116.361 21.8866V26H114.973ZM119.655 26V19.0308H120.925L120.965 20.76L120.808 20.7076C120.886 20.3233 121.022 19.9958 121.214 19.7251C121.415 19.4544 121.659 19.2448 121.947 19.0963C122.235 18.9478 122.55 18.8736 122.89 18.8736C123.484 18.8736 123.969 19.0439 124.345 19.3845C124.72 19.7164 124.956 20.1749 125.052 20.76H124.829C124.908 20.3495 125.039 20.0089 125.222 19.7382C125.414 19.4587 125.659 19.2448 125.956 19.0963C126.253 18.9478 126.589 18.8736 126.965 18.8736C127.454 18.8736 127.868 18.9784 128.209 19.188C128.558 19.3889 128.82 19.6858 128.995 20.0788C129.178 20.4718 129.27 20.9521 129.27 21.5198V26H127.882V21.8604C127.882 21.2578 127.772 20.8037 127.554 20.498C127.336 20.1923 127.004 20.0395 126.558 20.0395C126.27 20.0395 126.017 20.1137 125.799 20.2622C125.58 20.4107 125.41 20.6246 125.288 20.9041C125.174 21.1836 125.117 21.5198 125.117 21.9128V26H123.794V21.9128C123.794 21.3189 123.694 20.8604 123.493 20.5373C123.301 20.2054 122.969 20.0395 122.497 20.0395C122.201 20.0395 121.943 20.1137 121.725 20.2622C121.515 20.4107 121.349 20.629 121.227 20.9172C121.105 21.1967 121.043 21.5285 121.043 21.9128V26H119.655ZM133.056 26.1572C132.332 26.1572 131.751 25.9913 131.314 25.6594C130.886 25.3275 130.672 24.8603 130.672 24.2577C130.672 23.6551 130.851 23.1879 131.209 22.856C131.576 22.5154 132.139 22.2709 132.899 22.1224L135.296 21.6639C135.296 21.1224 135.17 20.7207 134.917 20.4587C134.663 20.188 134.288 20.0526 133.79 20.0526C133.345 20.0526 132.995 20.153 132.742 20.3539C132.489 20.546 132.314 20.8342 132.218 21.2185L130.79 21.1268C130.921 20.4281 131.244 19.8779 131.759 19.4762C132.283 19.0745 132.96 18.8736 133.79 18.8736C134.733 18.8736 135.449 19.1269 135.938 19.6334C136.436 20.1312 136.685 20.8342 136.685 21.7425V24.4542C136.685 24.6201 136.711 24.738 136.764 24.8079C136.825 24.869 136.921 24.8996 137.052 24.8996H137.301V26C137.257 26.0087 137.187 26.0175 137.091 26.0262C136.995 26.0349 136.895 26.0393 136.79 26.0393C136.493 26.0393 136.235 25.9913 136.017 25.8952C135.807 25.7991 135.65 25.6419 135.545 25.4236C135.441 25.1965 135.388 24.8952 135.388 24.5197L135.532 24.5852C135.462 24.8909 135.31 25.1616 135.074 25.3974C134.847 25.6332 134.554 25.821 134.196 25.9607C133.847 26.0917 133.467 26.1572 133.056 26.1572ZM133.279 25.0568C133.698 25.0568 134.056 24.9782 134.353 24.821C134.65 24.6551 134.882 24.428 135.048 24.1398C135.214 23.8516 135.296 23.5241 135.296 23.1573V22.7119L133.253 23.1049C132.834 23.1835 132.537 23.3101 132.362 23.4848C132.196 23.6507 132.113 23.8647 132.113 24.1267C132.113 24.4236 132.214 24.6551 132.414 24.821C132.624 24.9782 132.912 25.0568 133.279 25.0568ZM138.473 26V19.0308H139.744L139.796 20.891L139.626 20.7993C139.705 20.3452 139.853 19.9784 140.071 19.6989C140.29 19.4194 140.556 19.2142 140.871 19.0832C141.185 18.9435 141.526 18.8736 141.892 18.8736C142.416 18.8736 142.849 18.9915 143.189 19.2273C143.539 19.4544 143.801 19.7688 143.975 20.1705C144.159 20.5635 144.25 21.0133 144.25 21.5198V26H142.862V21.939C142.862 21.5285 142.818 21.1836 142.731 20.9041C142.643 20.6246 142.499 20.4107 142.298 20.2622C142.098 20.1137 141.836 20.0395 141.512 20.0395C141.023 20.0395 140.626 20.2011 140.32 20.5242C140.015 20.8473 139.862 21.3189 139.862 21.939V26H138.473ZM148.928 26.1572C148.265 26.1572 147.684 26.0087 147.186 25.7118C146.688 25.4149 146.304 24.9913 146.033 24.4411C145.763 23.8909 145.627 23.249 145.627 22.5154C145.627 21.7818 145.763 21.1443 146.033 20.6028C146.304 20.0526 146.688 19.629 147.186 19.3321C147.684 19.0264 148.265 18.8736 148.928 18.8736C149.496 18.8736 149.998 18.974 150.435 19.1749C150.88 19.367 151.238 19.6509 151.509 20.0264C151.789 20.4019 151.968 20.8604 152.046 21.4019L150.592 21.4805C150.522 21.0264 150.339 20.6814 150.042 20.4456C149.745 20.2011 149.374 20.0788 148.928 20.0788C148.343 20.0788 147.885 20.2971 147.553 20.7338C147.23 21.1617 147.068 21.7556 147.068 22.5154C147.068 23.2752 147.23 23.8734 147.553 24.3101C147.885 24.738 148.343 24.952 148.928 24.952C149.374 24.952 149.745 24.8297 150.042 24.5852C150.339 24.3319 150.522 23.952 150.592 23.4455L152.046 23.5241C151.968 24.0568 151.789 24.5197 151.509 24.9127C151.238 25.3057 150.88 25.6114 150.435 25.8297C149.998 26.048 149.496 26.1572 148.928 26.1572ZM156.182 26.1572C155.501 26.1572 154.911 26.0087 154.413 25.7118C153.924 25.4149 153.544 24.9913 153.274 24.4411C153.012 23.8909 152.881 23.249 152.881 22.5154C152.881 21.7818 153.012 21.1443 153.274 20.6028C153.544 20.0526 153.924 19.629 154.413 19.3321C154.903 19.0264 155.479 18.8736 156.143 18.8736C156.771 18.8736 157.326 19.0221 157.806 19.319C158.287 19.6072 158.658 20.0264 158.92 20.5766C159.191 21.1268 159.326 21.7905 159.326 22.5678V22.9215H154.322C154.357 23.6027 154.536 24.1136 154.859 24.4542C155.191 24.7948 155.636 24.9651 156.195 24.9651C156.606 24.9651 156.946 24.869 157.217 24.6769C157.488 24.4848 157.675 24.2271 157.78 23.904L159.221 23.9957C159.038 24.642 158.675 25.166 158.134 25.5677C157.601 25.9607 156.951 26.1572 156.182 26.1572ZM154.322 21.8735H157.859C157.815 21.2534 157.636 20.7949 157.322 20.498C157.016 20.2011 156.623 20.0526 156.143 20.0526C155.645 20.0526 155.234 20.2098 154.911 20.5242C154.597 20.8299 154.4 21.2796 154.322 21.8735Z" fill="white"/>
<rect x="5" y="5" width="5" height="5" rx="2.5" transform="rotate(180 5 5)" fill="#00FFC2"/>
<rect x="3" y="39" width="1" height="36" transform="rotate(180 3 39)" fill="#00FFC2"/>
<rect width="1" height="35" transform="matrix(-1 0 0 1 184 6)" fill="#00FFC2"/>
<rect width="5" height="5" rx="2.5" transform="matrix(-1 0 0 1 186 38)" fill="#00FFC2"/>
</svg>
