<svg width="186" height="43" viewBox="0 0 186 43" fill="none" xmlns="http://www.w3.org/2000/svg">
<rect width="182" height="27" transform="matrix(-1 0 0 1 184 9)" fill="#012129"/>
<path d="M19.0785 25.3319V19.0177H20.2837V25.3319H19.0785ZM16.524 22.7774V21.5722H22.8382V22.7774H16.524ZM27.5349 26.2096C26.8449 26.2096 26.2554 26.1004 25.7664 25.8821C25.2773 25.655 24.893 25.3406 24.6136 24.9389C24.3341 24.5372 24.1725 24.0743 24.1289 23.5503L25.583 23.4586C25.6528 23.9477 25.8581 24.3145 26.1987 24.559C26.548 24.7948 26.9934 24.9127 27.5349 24.9127C28.1462 24.9127 28.6265 24.7424 28.9759 24.4018C29.3339 24.0612 29.513 23.5852 29.513 22.9739C29.513 22.5722 29.43 22.2272 29.2641 21.939C29.1069 21.6421 28.8798 21.415 28.5829 21.2578C28.2859 21.0919 27.9322 21.0089 27.5218 21.0089C27.1113 21.0089 26.7445 21.0962 26.4214 21.2709C26.0982 21.4456 25.8668 21.6857 25.7271 21.9914H24.2599L24.8887 16.699H30.3383V17.9959H26.1463L25.7533 21.1792L25.5306 20.9827C25.679 20.7207 25.8668 20.5067 26.0939 20.3408C26.3209 20.1661 26.5829 20.0351 26.8799 19.9478C27.1855 19.8517 27.5087 19.8037 27.8493 19.8037C28.4781 19.8037 29.0239 19.9391 29.4868 20.2098C29.9584 20.4805 30.3252 20.8561 30.5872 21.3364C30.8492 21.8167 30.9802 22.3626 30.9802 22.9739C30.9802 23.6114 30.8361 24.1747 30.5479 24.6638C30.2597 25.1529 29.8579 25.5328 29.3427 25.8035C28.8274 26.0742 28.2248 26.2096 27.5349 26.2096ZM36.1628 26.2096C35.3943 26.2096 34.7262 26.0131 34.1585 25.6201C33.5909 25.2271 33.1542 24.6682 32.8485 23.9433C32.5429 23.2184 32.39 22.3582 32.39 21.3626C32.39 20.367 32.5429 19.5068 32.8485 18.7819C33.1629 18.0483 33.5996 17.485 34.1585 17.092C34.7262 16.6903 35.3943 16.4894 36.1628 16.4894C36.9401 16.4894 37.6082 16.6903 38.1671 17.092C38.7348 17.485 39.1715 18.0439 39.4771 18.7688C39.7915 19.4937 39.9487 20.3583 39.9487 21.3626C39.9487 22.3582 39.7959 23.2184 39.4902 23.9433C39.1846 24.6682 38.7479 25.2271 38.1802 25.6201C37.6126 26.0131 36.9401 26.2096 36.1628 26.2096ZM36.1628 24.9127C36.9052 24.9127 37.4772 24.607 37.8789 23.9957C38.2807 23.3844 38.4815 22.5067 38.4815 21.3626C38.4815 20.5941 38.3898 19.9434 38.2064 19.4107C38.0318 18.878 37.7698 18.4762 37.4204 18.2055C37.0798 17.926 36.6606 17.7863 36.1628 17.7863C35.6738 17.7863 35.2546 17.926 34.9052 18.2055C34.5646 18.4762 34.3026 18.878 34.1192 19.4107C33.9446 19.9434 33.8572 20.5941 33.8572 21.3626C33.8572 22.5067 34.0581 23.3844 34.4598 23.9957C34.8616 24.607 35.4292 24.9127 36.1628 24.9127ZM45.0028 26.2096C44.2343 26.2096 43.5662 26.0131 42.9985 25.6201C42.4308 25.2271 41.9942 24.6682 41.6885 23.9433C41.3828 23.2184 41.23 22.3582 41.23 21.3626C41.23 20.367 41.3828 19.5068 41.6885 18.7819C42.0029 18.0483 42.4396 17.485 42.9985 17.092C43.5662 16.6903 44.2343 16.4894 45.0028 16.4894C45.7801 16.4894 46.4482 16.6903 47.0071 17.092C47.5748 17.485 48.0114 18.0439 48.3171 18.7688C48.6315 19.4937 48.7887 20.3583 48.7887 21.3626C48.7887 22.3582 48.6359 23.2184 48.3302 23.9433C48.0245 24.6682 47.5879 25.2271 47.0202 25.6201C46.4525 26.0131 45.7801 26.2096 45.0028 26.2096ZM45.0028 24.9127C45.7451 24.9127 46.3172 24.607 46.7189 23.9957C47.1206 23.3844 47.3215 22.5067 47.3215 21.3626C47.3215 20.5941 47.2298 19.9434 47.0464 19.4107C46.8717 18.878 46.6097 18.4762 46.2604 18.2055C45.9198 17.926 45.5006 17.7863 45.0028 17.7863C44.5137 17.7863 44.0945 17.926 43.7452 18.2055C43.4046 18.4762 43.1426 18.878 42.9592 19.4107C42.7845 19.9434 42.6972 20.5941 42.6972 21.3626C42.6972 22.5067 42.8981 23.3844 43.2998 23.9957C43.7015 24.607 44.2692 24.9127 45.0028 24.9127ZM53.7401 26V16.699H57.2116C58.277 16.699 59.1067 16.9566 59.7006 17.4719C60.2944 17.9784 60.5914 18.6858 60.5914 19.5941C60.5914 20.1967 60.456 20.7207 60.1853 21.1661C59.9145 21.6028 59.5259 21.939 59.0194 22.1748C58.5216 22.4019 57.919 22.5154 57.2116 22.5154H55.1549V26H53.7401ZM55.1549 21.2316H57.1723C57.8098 21.2316 58.2945 21.0962 58.6264 20.8255C58.9582 20.546 59.1242 20.1356 59.1242 19.5941C59.1242 19.0614 58.9582 18.664 58.6264 18.402C58.2945 18.1313 57.8098 17.9959 57.1723 17.9959H55.1549V21.2316ZM62.0905 26V19.0308H63.3612L63.4136 20.8779L63.2957 20.8386C63.3918 20.2098 63.5839 19.7513 63.8721 19.4631C64.169 19.1749 64.5664 19.0308 65.0642 19.0308H65.7323V20.2753H65.0642C64.7149 20.2753 64.4223 20.3321 64.1865 20.4456C63.9507 20.5591 63.7717 20.7338 63.6494 20.9696C63.5359 21.2054 63.4791 21.5111 63.4791 21.8866V26H62.0905ZM69.5905 26.1572C68.9267 26.1572 68.346 26.0087 67.8482 25.7118C67.3504 25.4149 66.9661 24.9913 66.6954 24.4411C66.4246 23.8909 66.2893 23.249 66.2893 22.5154C66.2893 21.7731 66.4246 21.1312 66.6954 20.5897C66.9661 20.0482 67.3504 19.629 67.8482 19.3321C68.346 19.0264 68.9267 18.8736 69.5905 18.8736C70.2542 18.8736 70.835 19.0264 71.3328 19.3321C71.8306 19.629 72.2148 20.0482 72.4856 20.5897C72.7563 21.1312 72.8917 21.7731 72.8917 22.5154C72.8917 23.249 72.7563 23.8909 72.4856 24.4411C72.2148 24.9913 71.8306 25.4149 71.3328 25.7118C70.835 26.0087 70.2542 26.1572 69.5905 26.1572ZM69.5905 24.952C70.1843 24.952 70.6428 24.738 70.966 24.3101C71.2891 23.8734 71.4507 23.2752 71.4507 22.5154C71.4507 21.7556 71.2891 21.1617 70.966 20.7338C70.6428 20.2971 70.1843 20.0788 69.5905 20.0788C69.0053 20.0788 68.5468 20.2971 68.215 20.7338C67.8918 21.1617 67.7303 21.7556 67.7303 22.5154C67.7303 23.2752 67.8918 23.8734 68.215 24.3101C68.5468 24.738 69.0053 24.952 69.5905 24.952ZM73.1578 27.965V26.8253H73.7866C74.0224 26.8253 74.2058 26.7729 74.3368 26.6681C74.4765 26.5633 74.5464 26.3624 74.5464 26.0655V19.0308H75.9481V26.1179C75.9481 26.7816 75.7952 27.2532 75.4896 27.5327C75.1926 27.8209 74.6948 27.965 73.9962 27.965H73.1578ZM74.5333 18.0221V16.6335H75.9743V18.0221H74.5333ZM80.6564 26.1572C79.9752 26.1572 79.3857 26.0087 78.8879 25.7118C78.3988 25.4149 78.0189 24.9913 77.7482 24.4411C77.4862 23.8909 77.3552 23.249 77.3552 22.5154C77.3552 21.7818 77.4862 21.1443 77.7482 20.6028C78.0189 20.0526 78.3988 19.629 78.8879 19.3321C79.377 19.0264 79.9534 18.8736 80.6171 18.8736C81.2459 18.8736 81.8005 19.0221 82.2808 19.319C82.7611 19.6072 83.1323 20.0264 83.3943 20.5766C83.665 21.1268 83.8004 21.7905 83.8004 22.5678V22.9215H78.7962C78.8311 23.6027 79.0102 24.1136 79.3333 24.4542C79.6652 24.7948 80.1106 24.9651 80.6695 24.9651C81.08 24.9651 81.4206 24.869 81.6913 24.6769C81.962 24.4848 82.1498 24.2271 82.2546 23.904L83.6956 23.9957C83.5122 24.642 83.1498 25.166 82.6083 25.5677C82.0756 25.9607 81.4249 26.1572 80.6564 26.1572ZM78.7962 21.8735H82.3332C82.2895 21.2534 82.1105 20.7949 81.7961 20.498C81.4904 20.2011 81.0974 20.0526 80.6171 20.0526C80.1193 20.0526 79.7088 20.2098 79.3857 20.5242C79.0713 20.8299 78.8748 21.2796 78.7962 21.8735ZM87.6239 26C86.9602 26 86.4711 25.8472 86.1567 25.5415C85.8423 25.2358 85.6851 24.7599 85.6851 24.1136V17.3933H87.0737V24.0088C87.0737 24.3319 87.1436 24.5546 87.2833 24.6769C87.4231 24.7992 87.637 24.8603 87.9252 24.8603H88.9208V26H87.6239ZM84.624 20.1705V19.0308H88.9208V20.1705H84.624ZM93.0016 26.1572C92.3379 26.1572 91.7571 26.0087 91.2593 25.7118C90.7615 25.4149 90.3772 24.9913 90.1065 24.4411C89.8358 23.8909 89.7004 23.249 89.7004 22.5154C89.7004 21.7731 89.8358 21.1312 90.1065 20.5897C90.3772 20.0482 90.7615 19.629 91.2593 19.3321C91.7571 19.0264 92.3379 18.8736 93.0016 18.8736C93.6653 18.8736 94.2461 19.0264 94.7439 19.3321C95.2417 19.629 95.626 20.0482 95.8967 20.5897C96.1674 21.1312 96.3028 21.7731 96.3028 22.5154C96.3028 23.249 96.1674 23.8909 95.8967 24.4411C95.626 24.9913 95.2417 25.4149 94.7439 25.7118C94.2461 26.0087 93.6653 26.1572 93.0016 26.1572ZM93.0016 24.952C93.5955 24.952 94.054 24.738 94.3771 24.3101C94.7002 23.8734 94.8618 23.2752 94.8618 22.5154C94.8618 21.7556 94.7002 21.1617 94.3771 20.7338C94.054 20.2971 93.5955 20.0788 93.0016 20.0788C92.4165 20.0788 91.958 20.2971 91.6261 20.7338C91.303 21.1617 91.1414 21.7556 91.1414 22.5154C91.1414 23.2752 91.303 23.8734 91.6261 24.3101C91.958 24.738 92.4165 24.952 93.0016 24.952ZM100.392 26.1572C99.7366 26.1572 99.1821 26.0568 98.7279 25.8559C98.2825 25.655 97.9376 25.3799 97.693 25.0306C97.4485 24.6725 97.3088 24.2621 97.2738 23.7992L98.7017 23.7337C98.7716 24.118 98.9375 24.4236 99.1995 24.6507C99.4615 24.8778 99.8589 24.9913 100.392 24.9913C100.828 24.9913 101.173 24.9214 101.427 24.7817C101.68 24.642 101.806 24.4193 101.806 24.1136C101.806 23.9477 101.763 23.8079 101.675 23.6944C101.597 23.5721 101.44 23.4717 101.204 23.3931C100.968 23.3058 100.619 23.2228 100.156 23.1442C99.4659 23.0132 98.9244 22.8604 98.5314 22.6857C98.1384 22.511 97.859 22.2883 97.693 22.0176C97.5271 21.7469 97.4441 21.4194 97.4441 21.0351C97.4441 20.3976 97.6799 19.8779 98.1515 19.4762C98.6319 19.0745 99.3218 18.8736 100.221 18.8736C100.824 18.8736 101.33 18.9784 101.741 19.188C102.151 19.3889 102.47 19.664 102.697 20.0133C102.933 20.3539 103.081 20.7382 103.143 21.1661L101.715 21.2447C101.671 21.0002 101.584 20.7906 101.453 20.6159C101.33 20.4325 101.165 20.2928 100.955 20.1967C100.745 20.0919 100.496 20.0395 100.208 20.0395C99.7628 20.0395 99.431 20.1268 99.2126 20.3015C98.9943 20.4762 98.8851 20.7032 98.8851 20.9827C98.8851 21.1923 98.9332 21.3626 99.0292 21.4936C99.134 21.6246 99.3 21.7338 99.527 21.8211C99.7541 21.8997 100.055 21.9696 100.431 22.0307C101.156 22.153 101.723 22.3058 102.134 22.4892C102.544 22.6639 102.833 22.8822 102.999 23.1442C103.164 23.4062 103.247 23.725 103.247 24.1005C103.247 24.5372 103.125 24.9083 102.881 25.214C102.636 25.5197 102.3 25.7555 101.872 25.9214C101.444 26.0786 100.951 26.1572 100.392 26.1572ZM108.11 26V16.699H114.162V17.9959H109.525V20.7076H114.005V21.9652H109.525V24.7031H114.267V26H108.11ZM115.949 26V19.0308H117.22L117.272 20.891L117.102 20.7993C117.18 20.3452 117.329 19.9784 117.547 19.6989C117.765 19.4194 118.032 19.2142 118.346 19.0832C118.661 18.9435 119.001 18.8736 119.368 18.8736C119.892 18.8736 120.324 18.9915 120.665 19.2273C121.014 19.4544 121.276 19.7688 121.451 20.1705C121.634 20.5635 121.726 21.0133 121.726 21.5198V26H120.337V21.939C120.337 21.5285 120.294 21.1836 120.206 20.9041C120.119 20.6246 119.975 20.4107 119.774 20.2622C119.573 20.1137 119.311 20.0395 118.988 20.0395C118.499 20.0395 118.102 20.2011 117.796 20.5242C117.49 20.8473 117.338 21.3189 117.338 21.939V26H115.949ZM125.862 26C125.198 26 124.709 25.8472 124.395 25.5415C124.081 25.2358 123.923 24.7599 123.923 24.1136V17.3933H125.312V24.0088C125.312 24.3319 125.382 24.5546 125.522 24.6769C125.661 24.7992 125.875 24.8603 126.163 24.8603H127.159V26H125.862ZM122.862 20.1705V19.0308H127.159V20.1705H122.862ZM128.627 26V19.0308H129.897L129.95 20.8779L129.832 20.8386C129.928 20.2098 130.12 19.7513 130.408 19.4631C130.705 19.1749 131.103 19.0308 131.6 19.0308H132.269V20.2753H131.6C131.251 20.2753 130.959 20.3321 130.723 20.4456C130.487 20.5591 130.308 20.7338 130.186 20.9696C130.072 21.2054 130.015 21.5111 130.015 21.8866V26H128.627ZM136.127 26.1572C135.445 26.1572 134.856 26.0087 134.358 25.7118C133.869 25.4149 133.489 24.9913 133.218 24.4411C132.956 23.8909 132.825 23.249 132.825 22.5154C132.825 21.7818 132.956 21.1443 133.218 20.6028C133.489 20.0526 133.869 19.629 134.358 19.3321C134.847 19.0264 135.424 18.8736 136.087 18.8736C136.716 18.8736 137.271 19.0221 137.751 19.319C138.231 19.6072 138.603 20.0264 138.865 20.5766C139.135 21.1268 139.271 21.7905 139.271 22.5678V22.9215H134.266C134.301 23.6027 134.48 24.1136 134.804 24.4542C135.135 24.7948 135.581 24.9651 136.14 24.9651C136.55 24.9651 136.891 24.869 137.162 24.6769C137.432 24.4848 137.62 24.2271 137.725 23.904L139.166 23.9957C138.982 24.642 138.62 25.166 138.079 25.5677C137.546 25.9607 136.895 26.1572 136.127 26.1572ZM134.266 21.8735H137.803C137.76 21.2534 137.581 20.7949 137.266 20.498C136.961 20.2011 136.568 20.0526 136.087 20.0526C135.59 20.0526 135.179 20.2098 134.856 20.5242C134.542 20.8299 134.345 21.2796 134.266 21.8735ZM143.481 28.1222C142.931 28.1222 142.446 28.0392 142.027 27.8733C141.608 27.7074 141.263 27.4716 140.992 27.1659C140.721 26.869 140.538 26.5196 140.442 26.1179L141.883 26.0262C141.979 26.3144 142.145 26.5415 142.381 26.7074C142.625 26.8821 142.992 26.9694 143.481 26.9694C144.058 26.9694 144.499 26.8471 144.804 26.6026C145.119 26.3581 145.276 25.9869 145.276 25.4891V24.4804C145.11 24.8385 144.844 25.1223 144.477 25.3319C144.11 25.5415 143.699 25.6463 143.245 25.6463C142.66 25.6463 142.141 25.5022 141.686 25.214C141.232 24.9258 140.879 24.5284 140.625 24.0219C140.372 23.5154 140.245 22.9302 140.245 22.2665C140.245 21.594 140.368 21.0045 140.612 20.498C140.865 19.9915 141.215 19.5941 141.66 19.3059C142.114 19.0177 142.625 18.8736 143.193 18.8736C143.691 18.8736 144.127 18.9871 144.503 19.2142C144.887 19.4413 145.162 19.7469 145.328 20.1312V19.0308H146.664V25.4498C146.664 26.0262 146.533 26.5109 146.271 26.9039C146.018 27.3056 145.651 27.6069 145.171 27.8078C144.699 28.0174 144.136 28.1222 143.481 28.1222ZM143.468 24.4673C144.009 24.4673 144.442 24.2708 144.765 23.8778C145.097 23.4848 145.267 22.9433 145.276 22.2534C145.285 21.7993 145.215 21.4106 145.066 21.0875C144.918 20.7556 144.704 20.5024 144.424 20.3277C144.154 20.1443 143.835 20.0526 143.468 20.0526C142.9 20.0526 142.459 20.2535 142.145 20.6552C141.839 21.0482 141.686 21.5809 141.686 22.2534C141.686 22.9346 141.844 23.4761 142.158 23.8778C142.481 24.2708 142.918 24.4673 143.468 24.4673ZM150.927 26.1572C150.229 26.1572 149.67 25.9258 149.251 25.4629C148.84 24.9913 148.635 24.3407 148.635 23.511V19.0308H150.024V23.1573C150.024 23.7861 150.133 24.249 150.351 24.5459C150.569 24.8428 150.901 24.9913 151.347 24.9913C151.853 24.9913 152.246 24.8297 152.526 24.5066C152.814 24.1747 152.958 23.7119 152.958 23.118V19.0308H154.347V26H153.05L153.023 24.1791L153.22 24.2577C153.098 24.869 152.84 25.3406 152.447 25.6725C152.054 25.9956 151.548 26.1572 150.927 26.1572ZM159.052 26.1572C158.371 26.1572 157.781 26.0087 157.283 25.7118C156.794 25.4149 156.414 24.9913 156.144 24.4411C155.882 23.8909 155.751 23.249 155.751 22.5154C155.751 21.7818 155.882 21.1443 156.144 20.6028C156.414 20.0526 156.794 19.629 157.283 19.3321C157.772 19.0264 158.349 18.8736 159.012 18.8736C159.641 18.8736 160.196 19.0221 160.676 19.319C161.156 19.6072 161.528 20.0264 161.79 20.5766C162.06 21.1268 162.196 21.7905 162.196 22.5678V22.9215H157.192C157.226 23.6027 157.405 24.1136 157.729 24.4542C158.06 24.7948 158.506 24.9651 159.065 24.9651C159.475 24.9651 159.816 24.869 160.087 24.6769C160.357 24.4848 160.545 24.2271 160.65 23.904L162.091 23.9957C161.908 24.642 161.545 25.166 161.004 25.5677C160.471 25.9607 159.82 26.1572 159.052 26.1572ZM157.192 21.8735H160.729C160.685 21.2534 160.506 20.7949 160.191 20.498C159.886 20.2011 159.493 20.0526 159.012 20.0526C158.515 20.0526 158.104 20.2098 157.781 20.5242C157.467 20.8299 157.27 21.2796 157.192 21.8735ZM166.288 26.1572C165.633 26.1572 165.079 26.0568 164.625 25.8559C164.179 25.655 163.834 25.3799 163.59 25.0306C163.345 24.6725 163.205 24.2621 163.17 23.7992L164.598 23.7337C164.668 24.118 164.834 24.4236 165.096 24.6507C165.358 24.8778 165.755 24.9913 166.288 24.9913C166.725 24.9913 167.07 24.9214 167.323 24.7817C167.576 24.642 167.703 24.4193 167.703 24.1136C167.703 23.9477 167.659 23.8079 167.572 23.6944C167.493 23.5721 167.336 23.4717 167.1 23.3931C166.865 23.3058 166.515 23.2228 166.052 23.1442C165.362 23.0132 164.821 22.8604 164.428 22.6857C164.035 22.511 163.756 22.2883 163.59 22.0176C163.424 21.7469 163.341 21.4194 163.341 21.0351C163.341 20.3976 163.577 19.8779 164.048 19.4762C164.528 19.0745 165.218 18.8736 166.118 18.8736C166.721 18.8736 167.227 18.9784 167.638 19.188C168.048 19.3889 168.367 19.664 168.594 20.0133C168.83 20.3539 168.978 20.7382 169.039 21.1661L167.611 21.2447C167.568 21.0002 167.48 20.7906 167.349 20.6159C167.227 20.4325 167.061 20.2928 166.852 20.1967C166.642 20.0919 166.393 20.0395 166.105 20.0395C165.659 20.0395 165.328 20.1268 165.109 20.3015C164.891 20.4762 164.782 20.7032 164.782 20.9827C164.782 21.1923 164.83 21.3626 164.926 21.4936C165.031 21.6246 165.197 21.7338 165.424 21.8211C165.651 21.8997 165.952 21.9696 166.328 22.0307C167.052 22.153 167.62 22.3058 168.031 22.4892C168.441 22.6639 168.729 22.8822 168.895 23.1442C169.061 23.4062 169.144 23.725 169.144 24.1005C169.144 24.5372 169.022 24.9083 168.777 25.214C168.533 25.5197 168.196 25.7555 167.769 25.9214C167.341 26.0786 166.847 26.1572 166.288 26.1572Z" fill="white"/>
<rect x="5" y="5" width="5" height="5" rx="2.5" transform="rotate(180 5 5)" fill="#00FFC2"/>
<rect x="3" y="39" width="1" height="36" transform="rotate(180 3 39)" fill="#00FFC2"/>
<rect width="1" height="35" transform="matrix(-1 0 0 1 184 6)" fill="#00FFC2"/>
<rect width="5" height="5" rx="2.5" transform="matrix(-1 0 0 1 186 38)" fill="#00FFC2"/>
</svg>
